<?xml version="1.0" standalone="no"?>
<!DOCTYPE svg PUBLIC "-//W3C//DTD SVG 1.1//EN" "http://www.w3.org/Graphics/SVG/1.1/DTD/svg11.dtd" >
<svg>
<metadata>
Created by FontForge 20090622 at Sun Jan  1 11:44:49 2017
 By deploy user
2005 Xavier Dupre published by FontShop International for the FontFont library.
</metadata>
<defs>
<font id="AbsaraSans-Medium" horiz-adv-x="500" >
  <font-face 
    font-family="AbsaraSans-Medium"
    font-weight="500"
    font-stretch="normal"
    units-per-em="1000"
    panose-1="0 0 0 0 0 0 0 0 0 0"
    ascent="800"
    descent="-200"
    x-height="441"
    cap-height="682"
    bbox="-142 -281 1173 850"
    underline-thickness="50"
    underline-position="-108"
    unicode-range="U+0020-U+FB02"
  />
<missing-glyph horiz-adv-x="1000" 
 />
    <glyph glyph-name=".notdef" horiz-adv-x="1000" 
 />
    <glyph glyph-name=".null" horiz-adv-x="0" 
 />
    <glyph glyph-name="nonmarkingreturn" horiz-adv-x="333" 
 />
    <glyph glyph-name="space" unicode=" " horiz-adv-x="240" 
 />
    <glyph glyph-name="exclam" unicode="!" horiz-adv-x="250" 
d="M186 682l-22 -500h-76l-21 500h119zM190 52q0 -26 -19 -44t-45 -18t-45 18t-19 44q0 27 19 45.5t45 18.5t45 -18.5t19 -45.5z" />
    <glyph glyph-name="quotedbl" unicode="&#x22;" horiz-adv-x="338" 
d="M149 720l-15 -223h-74l-15 223h104zM293 720l-15 -223h-74l-15 223h104z" />
    <glyph glyph-name="numbersign" unicode="#" horiz-adv-x="513" 
d="M489 432h-96l-36 -169h85v-77h-102l-40 -186h-68l40 186h-98l-40 -186h-68l40 186h-84v77h101l36 169h-89v79h106l37 171h67l-36 -171h97l38 171h67l-37 -171h80v-79zM324 432h-96l-37 -169h97z" />
    <glyph glyph-name="dollar" unicode="$" horiz-adv-x="513" 
d="M456 227q0 -55 -33 -94.5t-91 -54.5v-88h-57v77q-12 -1 -28 -1h-19v-76h-57v83q-60 11 -98 34l22 93q58 -46 150 -46q102 0 102 66q0 28 -28 48.5t-67.5 35.5t-79.5 33t-68 51.5t-28 80.5q0 51 31 89.5t82 52.5v83h57v-70q12 1 32 1h15v69h57v-73q43 -5 81 -16l-16 -93
q-58 26 -133 26q-98 0 -98 -62q0 -23 28 -42t68 -35t80 -36t68 -54.5t28 -81.5z" />
    <glyph glyph-name="percent" unicode="%" horiz-adv-x="728" 
d="M331 527q0 -78 -40.5 -123.5t-109.5 -45.5t-107.5 44.5t-38.5 124.5q0 77 41.5 122t110.5 45q68 0 106 -44.5t38 -122.5zM614 682l-439 -682h-68l441 682h66zM246 527q0 97 -63 97t-63 -97t63 -97t63 97zM691 159q0 -78 -40.5 -123.5t-109.5 -45.5t-107.5 44.5
t-38.5 124.5q0 77 41.5 122t110.5 45q68 0 106 -44.5t38 -122.5zM606 160q0 96 -63 96t-63 -96q0 -98 63 -98t63 98z" />
    <glyph glyph-name="ampersand" unicode="&#x26;" horiz-adv-x="736" 
d="M717 15l-116 -33l-93 93q-98 -85 -228 -85q-115 0 -180.5 53t-65.5 150q0 155 173 227q-18 39 -18 93q0 86 55.5 133.5t133.5 47.5q87 0 134 -26l-25 -98q-45 27 -100 27q-38 0 -63.5 -22.5t-25.5 -61.5q0 -75 120 -198l84 -86q53 98 53 212l109 -10q0 -158 -85 -279z
M438 145l-86 86q-66 66 -97 107q-102 -40 -102 -138q0 -58 38 -87.5t97 -29.5q85 0 150 62z" />
    <glyph glyph-name="quotesingle" unicode="'" horiz-adv-x="194" 
d="M149 720l-15 -223h-74l-15 223h104z" />
    <glyph glyph-name="parenleft" unicode="(" horiz-adv-x="315" 
d="M352 -204l-39 -77q-129 38 -196 172t-67 329q0 203 72 331.5t191 169.5l38 -75q-190 -88 -190 -426q0 -337 191 -424z" />
    <glyph glyph-name="parenright" unicode=")" horiz-adv-x="315" 
d="M-46 644l38 77q129 -38 196 -172t67 -329q0 -203 -71.5 -331.5t-191.5 -169.5l-38 75q190 88 190 426q0 337 -190 424z" />
    <glyph glyph-name="asterisk" unicode="*" horiz-adv-x="374" 
d="M352 570l-91 -18l-10 -27l64 -68l-69 -51l-44 82h-28l-46 -82l-69 51l66 68l-11 27l-92 18l27 82l87 -43l21 17l-13 94h86l-12 -94l21 -17l87 43z" />
    <glyph glyph-name="plus" unicode="+" 
d="M461 197h-164v-186h-93v186h-165v87h165v182h93v-182h164v-87z" />
    <glyph glyph-name="comma" unicode="," horiz-adv-x="227" 
d="M206 79q-19 -135 -131 -275l-84 22q40 63 63 116t29 81.5t9 61.5z" />
    <glyph glyph-name="hyphen" unicode="-" horiz-adv-x="328" 
d="M290 208h-251v81h251v-81z" />
    <glyph glyph-name="period" unicode="." horiz-adv-x="221" 
d="M179 52q0 -26 -19 -44t-45 -18q-27 0 -45.5 18t-18.5 44q0 27 18.5 45.5t45.5 18.5q26 0 45 -18.5t19 -45.5z" />
    <glyph glyph-name="slash" unicode="/" horiz-adv-x="367" 
d="M391 707l-293 -707h-115l294 707h114z" />
    <glyph glyph-name="zero" unicode="0" horiz-adv-x="513" 
d="M480 251q0 -121 -61 -191t-166 -70t-162 68t-57 193q0 121 61 189t166 68q104 0 161.5 -67.5t57.5 -189.5zM367 252q0 84 -25.5 124t-85.5 40q-109 0 -109 -164q0 -82 25 -126t84 -44q111 0 111 170z" />
    <glyph glyph-name="one" unicode="1" horiz-adv-x="513" 
d="M473 97l-9 -97h-374v97h150v307l-127 -26l-14 89l158 41h94v-411h122z" />
    <glyph glyph-name="two" unicode="2" horiz-adv-x="513" 
d="M476 97l-10 -97h-428v80q161 79 222.5 131t61.5 108q0 89 -108 89q-71 0 -118 -29l-21 97q61 32 162 32q90 0 146 -45.5t56 -127.5q0 -66 -44.5 -121t-152.5 -117h234z" />
    <glyph glyph-name="three" unicode="3" horiz-adv-x="513" 
d="M447 41q0 -99 -110 -167.5t-281 -68.5l-14 103q132 2 206.5 36t74.5 95q0 49 -35.5 69t-103.5 20h-69v98h58q136 0 136 98q0 43 -29 63t-74 20q-72 0 -121 -27l-20 97q62 31 158 31q86 0 142 -43.5t56 -120.5q0 -104 -100 -149v-4q59 -12 92.5 -50t33.5 -100z" />
    <glyph glyph-name="four" unicode="4" horiz-adv-x="513" 
d="M491 0h-79v-188h-105v188h-269l-10 98l266 409l118 -10l-268 -403h163v167h105v-167h79v-94z" />
    <glyph glyph-name="five" unicode="5" horiz-adv-x="513" 
d="M457 38q0 -108 -101.5 -170.5t-268.5 -62.5l-16 102q270 2 270 125q0 100 -171 100q-61 0 -96 -4l42 370h330l-12 -101h-227l-21 -172h17q108 0 181 -45.5t73 -141.5z" />
    <glyph glyph-name="six" unicode="6" horiz-adv-x="513" 
d="M472 206q0 -97 -61 -156.5t-159 -59.5q-99 0 -155.5 72.5t-56.5 205.5q0 104 34.5 187.5t92.5 134.5t129.5 77.5t149.5 26.5l20 -98q-122 0 -209.5 -62.5t-105.5 -195.5h5q45 61 129 61q78 0 132.5 -49t54.5 -144zM360 201q0 55 -29.5 81t-76.5 26q-45 0 -73 -29.5
t-28 -80.5q0 -53 26.5 -83.5t74.5 -30.5t77 29.5t29 87.5z" />
    <glyph glyph-name="seven" unicode="7" horiz-adv-x="513" 
d="M472 400l-315 -591l-111 13l309 576h-299l-14 100h430v-98z" />
    <glyph glyph-name="eight" unicode="8" horiz-adv-x="513" 
d="M471 179q0 -83 -62.5 -136t-158.5 -53q-101 0 -154 51t-53 132q0 118 131 179q-114 66 -114 170q0 73 54.5 122t144.5 49q95 0 144.5 -44.5t49.5 -114.5q0 -53 -29.5 -99t-85.5 -71q71 -40 102 -82t31 -103zM354 519q0 38 -24.5 63t-68.5 25q-43 0 -69.5 -24t-26.5 -63
q0 -63 105 -115q37 15 60.5 47t23.5 67zM360 180q0 73 -121 132q-37 -18 -63 -52t-26 -74q0 -49 26.5 -76.5t74.5 -27.5q50 0 79.5 27t29.5 71z" />
    <glyph glyph-name="nine" unicode="9" horiz-adv-x="513" 
d="M470 230q0 -104 -34.5 -187.5t-92.5 -134.5t-129.5 -77.5t-149.5 -26.5l-20 98q122 0 209.5 62.5t105.5 195.5h-5q-43 -61 -129 -61q-78 0 -132 49t-54 144q0 97 61 156.5t159 59.5q99 0 155 -72.5t56 -205.5zM357 300q0 53 -26 83.5t-74 30.5t-77 -29.5t-29 -87.5
q0 -55 29 -81t76 -26q46 0 73.5 29.5t27.5 80.5z" />
    <glyph glyph-name="colon" unicode=":" horiz-adv-x="212" 
d="M170 52q0 -26 -19 -44t-45 -18q-27 0 -45 18t-18 44q0 27 18 45.5t45 18.5q26 0 45 -18.5t19 -45.5zM169 371q0 -26 -18.5 -44t-45.5 -18q-26 0 -44.5 18t-18.5 44q0 27 18.5 45.5t44.5 18.5q27 0 45.5 -18.5t18.5 -45.5z" />
    <glyph glyph-name="semicolon" unicode=";" horiz-adv-x="212" 
d="M193 79q-19 -135 -131 -275l-84 22q40 63 63 116t29 81.5t9 61.5zM169 371q0 -26 -18.5 -44t-44.5 -18q-27 0 -45.5 18t-18.5 44q0 27 18.5 45.5t45.5 18.5q26 0 44.5 -18.5t18.5 -45.5z" />
    <glyph glyph-name="less" unicode="&#x3c;" 
d="M449 25h-140l-276 216l277 211h138l-278 -207z" />
    <glyph glyph-name="equal" unicode="=" 
d="M453 298h-403v84h403v-84zM453 106h-403v85h403v-85z" />
    <glyph glyph-name="greater" unicode="&#x3e;" 
d="M49 452h141l275 -216l-276 -211h-138l278 208z" />
    <glyph glyph-name="question" unicode="?" horiz-adv-x="389" 
d="M367 516q0 -77 -53.5 -132.5t-145.5 -79.5l5 -122h-77l-43 182q102 15 154.5 48t52.5 93q0 47 -28.5 70.5t-73.5 23.5q-65 0 -110 -32l-16 98q55 29 140 29q84 0 139.5 -45.5t55.5 -132.5zM198 52q0 -26 -19 -44t-45 -18t-44.5 18t-18.5 44q0 27 18.5 45.5t44.5 18.5
t45 -18.5t19 -45.5z" />
    <glyph glyph-name="at" unicode="@" horiz-adv-x="853" 
d="M805 255q0 -108 -54.5 -173.5t-132.5 -65.5q-87 0 -118 50q-75 -48 -131 -48q-49 0 -79 30t-30 74q0 71 61 110l166 13v39q0 33 -16 46.5t-49 13.5q-50 0 -107 -35l-27 71q72 49 161 49q135 0 135 -129q0 -4 -1 -79t-1 -86q0 -52 49 -52q43 0 71 49t28 122
q0 137 -78 208.5t-215 71.5q-143 0 -228.5 -88.5t-85.5 -232.5q0 -139 77.5 -215.5t196.5 -76.5q79 0 129 18l8 -70q-54 -17 -141 -17q-148 0 -247 97t-99 261q0 173 112 282t279 109t267 -91t100 -255zM486 184l-117 -10q-7 -12 -7 -30q0 -50 52 -50q32 0 71 24z" />
    <glyph glyph-name="A" unicode="A" horiz-adv-x="677" 
d="M655 4l-123 -8l-73 198h-252l-72 -194h-114l262 682h109zM423 291l-76 204q-9 25 -11 51h-7q-4 -32 -11 -51l-76 -204h181z" />
    <glyph glyph-name="B" unicode="B" horiz-adv-x="595" 
d="M550 186q0 -85 -61 -138t-168 -53l-166 5h-64v682h58q98 5 146 5q98 0 155 -45t57 -127q0 -52 -29 -95.5t-80 -59.5v-6q71 -13 111.5 -58t40.5 -110zM392 497q0 49 -31.5 75.5t-88.5 26.5q-41 0 -69 -2v-209h59q130 0 130 109zM428 189q0 110 -159 110h-66v-208
q30 -3 96 -3q60 0 94.5 26t34.5 75z" />
    <glyph glyph-name="C" unicode="C" horiz-adv-x="675" 
d="M629 42q-95 -52 -231 -52q-147 0 -250 91.5t-103 247.5q0 90 31 162t82 115t113 65.5t128 22.5q137 0 224 -47l-34 -110q-78 49 -186 49q-100 0 -165 -62t-65 -194q0 -116 69.5 -174t169.5 -58q99 0 190 56z" />
    <glyph glyph-name="D" unicode="D" horiz-adv-x="740" 
d="M695 354q0 -174 -97 -267.5t-253 -93.5l-195 7h-59v682h53q131 7 187 7q164 0 264 -88.5t100 -246.5zM568 343q0 123 -69 184.5t-177 61.5q-45 0 -115 -5v-485q78 -6 126 -6q106 0 170.5 67.5t64.5 182.5z" />
    <glyph glyph-name="E" unicode="E" horiz-adv-x="573" 
d="M518 103l-7 -103h-420v682h404l-7 -104h-280v-179h256v-102h-256v-194h310z" />
    <glyph glyph-name="F" unicode="F" horiz-adv-x="546" 
d="M496 682l-11 -103h-277v-220h259v-103h-259v-256h-117v682h405z" />
    <glyph glyph-name="G" unicode="G" horiz-adv-x="730" 
d="M657 33q-109 -43 -253 -43q-155 0 -257 92t-102 251q0 89 30.5 159.5t81 113.5t112.5 65.5t129 22.5q136 0 244 -50l-33 -111q-40 23 -95.5 38t-106.5 15q-46 0 -86 -13t-74.5 -41t-54 -78.5t-19.5 -118.5q0 -117 69.5 -177.5t178.5 -60.5q66 0 117 19v182h119v-265z" />
    <glyph glyph-name="H" unicode="H" horiz-adv-x="756" 
d="M209 0h-118v682h118v-276h338v276h118v-682h-118v302h-338v-302z" />
    <glyph glyph-name="I" unicode="I" horiz-adv-x="300" 
d="M209 0h-118v682h118v-682z" />
    <glyph glyph-name="J" unicode="J" horiz-adv-x="314" 
d="M223 41q0 -103 -60.5 -164t-171.5 -76l-25 106q70 12 104.5 46.5t34.5 97.5v631h118v-641z" />
    <glyph glyph-name="K" unicode="K" horiz-adv-x="676" 
d="M510 687l139 -7l-284 -284l300 -395l-136 -11l-245 322l-76 -75v-237h-117v682h117v-307z" />
    <glyph glyph-name="L" unicode="L" horiz-adv-x="538" 
d="M513 104l-8 -104h-414v682h118v-578h304z" />
    <glyph glyph-name="M" unicode="M" horiz-adv-x="920" 
d="M855 3l-115 -6l-28 447q-1 11 -1 47h-6q-6 -37 -13 -55l-193 -436h-105l-171 435q-10 26 -13 56h-6q0 -36 -1 -47l-35 -444h-103l53 682h122l197 -492q10 -24 12 -51h8q4 27 14 51l216 492h120z" />
    <glyph glyph-name="N" unicode="N" horiz-adv-x="775" 
d="M684 1l-94 -12l-359 488q-19 25 -28 49h-6q2 -24 2 -46v-480h-108v682h127l327 -437q16 -22 28 -50h5q-2 30 -2 49v438h108v-681z" />
    <glyph glyph-name="O" unicode="O" horiz-adv-x="796" 
d="M751 354q0 -170 -106 -267t-260 -97q-137 0 -238.5 92t-101.5 245q0 171 104 269t258 98q143 0 243.5 -93t100.5 -247zM623 344q0 122 -63.5 185t-158.5 63q-96 0 -162 -65t-66 -186q0 -120 61.5 -184.5t160.5 -64.5q101 0 164.5 69.5t63.5 182.5z" />
    <glyph glyph-name="P" unicode="P" horiz-adv-x="578" 
d="M536 484q0 -111 -72.5 -169t-169.5 -58q-28 0 -48 2l-11 98q18 -3 41 -3q60 0 101.5 29.5t41.5 92.5q0 57 -34 86.5t-98 29.5q-36 0 -80 -2v-590h-116v682h64q105 6 152 6q110 0 169.5 -53.5t59.5 -150.5z" />
    <glyph glyph-name="Q" unicode="Q" horiz-adv-x="796" 
d="M772 -127l-104 -59l-285 179h-7q-85 2 -159.5 39.5t-123.5 115t-49 179.5q0 170 104.5 268.5t258.5 98.5q142 0 242.5 -93t100.5 -247q0 -126 -60 -211t-158 -123v-3zM622 344q0 121 -63 184t-158 63q-98 0 -163 -65t-65 -185t61.5 -184.5t159.5 -64.5q101 0 164.5 69.5
t63.5 182.5z" />
    <glyph glyph-name="R" unicode="R" horiz-adv-x="619" 
d="M629 5l-129 -16l-206 286h-88v-275h-115v682h67q127 6 157 6q101 0 160 -50.5t59 -141.5q0 -67 -35.5 -115t-94.5 -69v-5zM414 484q0 54 -33.5 81.5t-94.5 27.5q-11 0 -80 -3v-223h80q61 0 94.5 32t33.5 85z" />
    <glyph glyph-name="S" unicode="S" horiz-adv-x="533" 
d="M486 188q0 -90 -66 -144t-170 -54q-59 0 -115.5 14t-90.5 36l31 104q75 -52 174 -52q49 0 81.5 22t32.5 63q0 36 -31.5 65t-76.5 52t-89.5 48.5t-76 66.5t-31.5 94q0 87 64.5 139t164.5 52q96 0 172 -21l-20 -107q-71 27 -146 27q-117 0 -117 -77q0 -31 32 -58t77.5 -50
t91 -50t77.5 -70.5t32 -99.5z" />
    <glyph glyph-name="T" unicode="T" horiz-adv-x="581" 
d="M567 682l-6 -104h-211v-578h-119v578h-211l-6 104h553z" />
    <glyph glyph-name="U" unicode="U" horiz-adv-x="723" 
d="M638 232q0 -105 -74.5 -173.5t-199.5 -68.5q-135 0 -207 60.5t-72 181.5v450h118v-429q0 -155 162 -155q81 0 120.5 42t39.5 114v428h113v-450z" />
    <glyph glyph-name="V" unicode="V" horiz-adv-x="661" 
d="M640 682l-242 -682h-132l-244 679l125 9l176 -506q9 -28 10 -47h8q2 22 10 47l171 500h118z" />
    <glyph glyph-name="W" unicode="W" horiz-adv-x="1055" 
d="M1025 682l-197 -682h-122l-162 496q-9 38 -10 46h-7q-4 -28 -10 -46l-169 -496h-121l-196 679l121 8l135 -481q6 -24 8 -44h7q1 17 10 43l162 477h122l158 -476q8 -30 10 -44h7q1 16 7 43l129 477h118z" />
    <glyph glyph-name="X" unicode="X" horiz-adv-x="702" 
d="M678 10l-136 -16l-190 277l-193 -271h-135l260 352l-239 319l134 19l182 -256l170 248h135l-239 -324z" />
    <glyph glyph-name="Y" unicode="Y" horiz-adv-x="627" 
d="M611 682l-229 -427v-255h-118v255l-246 421l133 10l156 -284q10 -20 14 -40h9q4 22 15 41l145 279h121z" />
    <glyph glyph-name="Z" unicode="Z" horiz-adv-x="677" 
d="M611 0h-552l-10 95l409 483h-369l-4 104h512l15 -88l-415 -490h407z" />
    <glyph glyph-name="bracketleft" unicode="[" horiz-adv-x="335" 
d="M319 -257h-224v959h224v-92h-110v-775h110v-92z" />
    <glyph glyph-name="backslash" unicode="\" horiz-adv-x="367" 
d="M390 0h-113l-294 707h115z" />
    <glyph glyph-name="bracketright" unicode="]" horiz-adv-x="335" 
d="M240 -257h-224v92h110v775h-110v92h224v-959z" />
    <glyph glyph-name="asciicircum" unicode="^" 
d="M423 271l-74 -6l-108 220l-107 -220l-72 6l139 298h80z" />
    <glyph glyph-name="underscore" unicode="_" 
d="M500 -101h-500v81h500v-81z" />
    <glyph glyph-name="grave" unicode="`" 
d="M309 497h-76l-120 197h120z" />
    <glyph glyph-name="a" unicode="a" horiz-adv-x="461" 
d="M415 14l-104 -24l-15 46q-78 -46 -138 -46q-56 0 -87 34t-31 84q0 77 69 121l175 15v45q0 37 -17.5 52.5t-54.5 15.5q-53 0 -114 -40l-29 79q78 56 176 56q70 0 107.5 -33.5t37.5 -111.5q0 -6 -1.5 -90t-1.5 -90q0 -24 8 -48zM283 178l-124 -14q-8 -14 -8 -36
q0 -55 53 -55q30 0 78 25z" />
    <glyph glyph-name="b" unicode="b" horiz-adv-x="542" 
d="M501 238q0 -115 -70 -181.5t-169 -66.5q-118 0 -185 46v667l111 11v-309q53 47 126 47q84 0 135.5 -56.5t51.5 -157.5zM383 231q0 63 -32 96t-82 33q-42 0 -81 -26v-232q28 -16 73 -16q51 0 86.5 35t35.5 110z" />
    <glyph glyph-name="c" unicode="c" horiz-adv-x="448" 
d="M431 52q-66 -62 -166 -62q-102 0 -163.5 62.5t-61.5 167.5q0 109 66.5 170.5t161.5 61.5q87 0 140 -26l-26 -95q-46 25 -100 25q-55 0 -88.5 -35.5t-33.5 -102.5q0 -60 32 -95t89 -35q65 0 111 46z" />
    <glyph glyph-name="d" unicode="d" horiz-adv-x="540" 
d="M471 0l-102 -6l-5 52q-59 -56 -132 -56q-81 0 -136.5 56t-55.5 161q0 114 68.5 179t155.5 65q55 0 88 -12v264l111 11v-605q0 -50 8 -109zM352 117v227q-32 17 -69 17q-53 0 -88.5 -34.5t-35.5 -107.5q0 -68 29.5 -102t80.5 -34q49 0 83 34z" />
    <glyph glyph-name="e" unicode="e" horiz-adv-x="481" 
d="M441 62q-64 -72 -178 -72q-91 0 -157 59t-66 167q0 111 65 173.5t150 62.5q87 0 134 -48.5t47 -124.5q0 -38 -4 -70h-274q-1 -5 -1 -8q0 -52 33.5 -84.5t90.5 -32.5q65 0 122 50zM328 278v19q0 34 -20 55.5t-56 21.5q-39 0 -63 -26.5t-27 -69.5h166z" />
    <glyph glyph-name="f" unicode="f" horiz-adv-x="357" 
d="M350 716l-9 -105q-14 2 -37 2q-92 0 -92 -100v-74h124v-93h-124v-346h-110v346h-77v93h77v49q0 110 54.5 171t134.5 61q27 0 59 -4z" />
    <glyph glyph-name="g" unicode="g" horiz-adv-x="498" 
d="M467 -73q0 -82 -64.5 -138t-169.5 -56q-104 0 -163.5 43t-59.5 117q0 39 23.5 66.5t61.5 39.5q-66 24 -66 88q0 34 20 58.5t65 45.5q-39 34 -39 102q0 72 48 115.5t123 43.5q38 0 73 -11h145v-75h-67v-4q22 -27 22 -70q0 -73 -45.5 -115.5t-127.5 -42.5q-45 0 -75 16
q-27 -11 -37.5 -20.5t-10.5 -22.5q0 -28 64 -36l241 -32q39 -50 39 -112zM318 293q0 40 -19 62.5t-53 22.5t-52.5 -22.5t-18.5 -62.5q0 -38 19 -60t52 -22q34 0 53 21.5t19 60.5zM361 -84q0 17 -6 32l-206 26q-17 -6 -28.5 -23.5t-11.5 -39.5q0 -87 132 -87q55 0 87.5 25
t32.5 67z" />
    <glyph glyph-name="h" unicode="h" horiz-adv-x="546" 
d="M471 0h-111v265q0 95 -83 95q-47 0 -89 -30v-330h-111v703l111 11v-316q55 54 128 54q155 0 155 -169v-283z" />
    <glyph glyph-name="i" unicode="i" horiz-adv-x="265" 
d="M187 608q0 -23 -16 -39t-38 -16q-23 0 -38.5 16t-15.5 39t15.5 38.5t38.5 15.5t38.5 -15.5t15.5 -38.5zM188 0h-111v437l111 9v-446z" />
    <glyph glyph-name="j" unicode="j" horiz-adv-x="265" 
d="M186 608q0 -23 -16 -39t-38 -16q-23 0 -38 16t-15 39t15 38.5t38 15.5t38.5 -15.5t15.5 -38.5zM188 -38q0 -84 -41.5 -145t-122.5 -86l-46 74q99 45 99 162v470l111 9v-484z" />
    <glyph glyph-name="k" unicode="k" horiz-adv-x="525" 
d="M510 9l-122 -17q-74 111 -151 201l-49 -45v-148h-111v703l111 11v-453l198 188l121 -15l-192 -171q107 -122 195 -254z" />
    <glyph glyph-name="l" unicode="l" horiz-adv-x="265" 
d="M188 0h-111v703l111 11v-714z" />
    <glyph glyph-name="m" unicode="m" horiz-adv-x="795" 
d="M720 0h-111v265q0 95 -75 95q-45 0 -79 -32v-328h-111v265q0 95 -74 95q-42 0 -82 -31v-329h-111v437l108 9v-49q59 55 126 55q88 0 122 -63q67 63 143 63q71 0 107.5 -39.5t36.5 -129.5v-283z" />
    <glyph glyph-name="n" unicode="n" horiz-adv-x="544" 
d="M470 0h-111v265q0 95 -82 95q-48 0 -89 -30v-330h-111v437l108 9v-49q59 55 128 55q157 0 157 -169v-283z" />
    <glyph glyph-name="o" unicode="o" horiz-adv-x="545" 
d="M505 230q0 -111 -69.5 -175.5t-172.5 -64.5q-96 0 -159.5 61t-63.5 159q0 110 68.5 176t171.5 66q97 0 161 -60t64 -162zM386 223q0 65 -32.5 101.5t-80.5 36.5q-49 0 -81 -35.5t-32 -103.5q0 -64 31.5 -101t79.5 -37q53 0 84 37.5t31 101.5z" />
    <glyph glyph-name="p" unicode="p" horiz-adv-x="542" 
d="M501 235q0 -113 -67.5 -179t-152.5 -66q-57 0 -93 17v-264h-111v694l110 9v-50q53 56 130 56q85 0 134.5 -58t49.5 -159zM382 230q0 67 -31 100t-83 33q-47 0 -80 -39v-222q27 -20 71 -20q123 0 123 148z" />
    <glyph glyph-name="q" unicode="q" horiz-adv-x="541" 
d="M464 -257h-111v290q-56 -42 -124 -42q-83 0 -136 57t-53 158q0 115 67.5 180.5t165.5 65.5q102 0 191 -33v-676zM353 110v235q-36 16 -73 16q-53 0 -87 -35.5t-34 -109.5q0 -70 30 -101.5t78 -31.5q55 0 86 27z" />
    <glyph glyph-name="r" unicode="r" horiz-adv-x="364" 
d="M348 447l-10 -113q-28 10 -56 10q-59 0 -94 -62v-282h-111v437l108 9v-71q46 77 126 77q22 0 37 -5z" />
    <glyph glyph-name="s" unicode="s" horiz-adv-x="400" 
d="M357 129q0 -59 -47.5 -99t-125.5 -40q-93 0 -138 26l18 91q56 -29 128 -29q54 0 54 39q0 19 -20 34t-49 27.5t-58 28t-49 44t-20 67.5q0 57 52 95.5t132 38.5q54 0 109 -12l-16 -94q-44 17 -106 17q-61 0 -61 -36q0 -17 20.5 -31t49 -26.5t57.5 -28.5t49.5 -44.5
t20.5 -67.5z" />
    <glyph glyph-name="t" unicode="t" horiz-adv-x="372" 
d="M350 13q-42 -23 -110 -23q-143 0 -143 151v205h-71v93h72v100l111 16v-116h122v-93h-124v-185q0 -41 15.5 -58t48.5 -17t65 14z" />
    <glyph glyph-name="u" unicode="u" horiz-adv-x="542" 
d="M476 2l-110 -10l-6 51q-67 -53 -138 -53q-147 0 -147 164v282l111 10v-279q0 -45 20 -62t56 -17q52 0 93 43v305l111 10v-346q0 -51 10 -98z" />
    <glyph glyph-name="v" unicode="v" horiz-adv-x="468" 
d="M464 441l-179 -441h-111l-166 435l119 10l96 -268q5 -16 10 -46h6q2 14 13 46l96 264h116z" />
    <glyph glyph-name="w" unicode="w" horiz-adv-x="762" 
d="M741 441l-154 -441h-108l-86 270q-6 15 -9 36h-7q-3 -21 -9 -36l-97 -270h-108l-136 435l113 10l76 -269q7 -24 9 -40h7q3 16 12 40l93 265h100l88 -265q6 -18 10 -40h8q1 17 9 40l80 265h109z" />
    <glyph glyph-name="x" unicode="x" horiz-adv-x="492" 
d="M479 6l-129 -13l-109 164l-106 -157h-123l164 223l-150 214l133 8l93 -149l95 145h123l-153 -208z" />
    <glyph glyph-name="y" unicode="y" horiz-adv-x="484" 
d="M479 441l-156 -395q-102 -260 -265 -315l-61 90q127 38 190 179h-21l-146 435l119 10l90 -297q10 -43 10 -44h7q3 20 12 44l106 293h115z" />
    <glyph glyph-name="z" unicode="z" horiz-adv-x="463" 
d="M418 0h-382l-7 77l254 270h-222l-7 94h358l8 -78l-253 -269h239z" />
    <glyph glyph-name="braceleft" unicode="{" horiz-adv-x="317" 
d="M302 -261q-25 -3 -56 -3q-195 0 -195 150q0 41 48.5 127.5t48.5 110.5q0 28 -27.5 38t-89.5 10v96q62 0 89.5 10t27.5 39q0 23 -48.5 107.5t-48.5 127.5q0 151 195 151q28 0 56 -3v-84q-13 1 -36 1q-98 0 -98 -69q0 -34 47.5 -112t47.5 -116q0 -42 -26.5 -67t-92.5 -30
v-7q67 -4 93 -29t26 -69q0 -35 -47.5 -115t-47.5 -113q0 -68 99 -68q22 0 35 1v-84z" />
    <glyph glyph-name="bar" unicode="|" horiz-adv-x="299" 
d="M205 -257h-110v964h110v-964z" />
    <glyph glyph-name="braceright" unicode="}" horiz-adv-x="317" 
d="M16 700q24 3 56 3q194 0 194 -150q0 -41 -48 -127.5t-48 -110.5q0 -28 27.5 -38t89.5 -10v-96q-62 0 -89.5 -10t-27.5 -39q0 -23 48 -107.5t48 -127.5q0 -151 -194 -151q-27 0 -56 3v84q12 -1 35 -1q98 0 98 69q0 34 -47.5 112t-47.5 116q0 42 26.5 67t92.5 30v7
q-67 4 -93 29t-26 69q0 35 47.5 115t47.5 113q0 68 -99 68q-21 0 -34 -1v84z" />
    <glyph glyph-name="asciitilde" unicode="~" 
d="M449 284q-11 -62 -39 -96t-66 -34q-31 0 -98.5 29t-83.5 29q-18 0 -31 -15.5t-27 -51.5l-53 18q33 126 107 126q27 0 93 -29.5t85 -29.5q34 0 55 70z" />
    <glyph glyph-name="uni00A0" unicode="&#xa0;" horiz-adv-x="240" 
 />
    <glyph glyph-name="exclamdown" unicode="&#xa1;" horiz-adv-x="250" 
d="M68 -241l22 500h75l22 -500h-119zM64 388q0 26 18.5 44.5t45.5 18.5q26 0 44.5 -18.5t18.5 -44.5t-18.5 -44.5t-44.5 -18.5q-27 0 -45.5 18.5t-18.5 44.5z" />
    <glyph glyph-name="cent" unicode="&#xa2;" horiz-adv-x="513" 
d="M446 128q-47 -22 -106 -28v-110h-87v109q-90 10 -147.5 70.5t-57.5 167.5q0 116 59 179.5t146 75.5v102h87v-102q55 -5 104 -26l-20 -95q-51 25 -123 25q-144 0 -144 -157q0 -72 38 -107t103 -35q73 0 126 29z" />
    <glyph glyph-name="sterling" unicode="&#xa3;" horiz-adv-x="513" 
d="M463 0h-408v83q50 0 85.5 26.5t35.5 80.5q0 35 -32 107h-88v82h50q-38 86 -38 140q0 77 52 126t144 49q99 0 165 -31l-25 -94q-59 32 -132 32q-95 0 -95 -89q0 -34 47 -133h207v-82h-172q20 -52 20 -88q0 -76 -57 -119h241v-90z" />
    <glyph glyph-name="currency" unicode="&#xa4;" horiz-adv-x="513" 
d="M476 414l-51 -53q38 -53 38 -122q0 -73 -42 -129l53 -54l-57 -53l-51 57q-50 -33 -110 -33q-61 0 -111 33l-50 -56l-57 53l51 53q-39 53 -39 124q0 70 38 125l-49 52l58 52l47 -53q52 35 112 35q61 0 114 -34l48 55zM372 238q0 55 -33.5 89.5t-81.5 34.5q-46 0 -81 -35
t-35 -89q0 -57 32 -92t80 -35t83.5 36t35.5 91z" />
    <glyph glyph-name="yen" unicode="&#xa5;" horiz-adv-x="513" 
d="M505 682l-172 -370h115v-94h-133v-218h-116v218h-133v94h114l-171 364l126 11l109 -262q9 -24 12 -38h8q4 18 12 38l112 257h117z" />
    <glyph glyph-name="brokenbar" unicode="&#xa6;" horiz-adv-x="299" 
d="M205 307h-110v400h110v-400zM205 -257h-110v401h110v-401z" />
    <glyph glyph-name="section" unicode="&#xa7;" horiz-adv-x="513" 
d="M468 347q0 -99 -105 -144q25 -27 25 -67q0 -66 -53 -106t-135 -40q-59 0 -93 10l15 89q45 -14 100 -14q67 0 67 40q0 21 -25 39t-60.5 34t-71.5 34t-61 48t-25 67q0 99 105 143q-25 28 -25 68q0 68 54.5 107t132.5 39q55 0 95 -10l-16 -88q-43 13 -103 13q-63 0 -63 -40
q0 -21 25 -39t60.5 -34t71 -34t60.5 -48t25 -67zM364 326q0 18 -17.5 35.5t-36.5 27.5t-50 24t-42 20q-31 -8 -49.5 -28t-18.5 -47q0 -18 17.5 -35t36 -27.5t50.5 -25t43 -20.5q67 20 67 76z" />
    <glyph glyph-name="dieresis" unicode="&#xa8;" 
d="M390 605q0 -23 -15.5 -39t-38.5 -16q-22 0 -37.5 16t-15.5 39t15 38t38 15t38.5 -15t15.5 -38zM217 605q0 -23 -15.5 -39t-38.5 -16q-22 0 -37.5 16t-15.5 39t15 38t38 15t38.5 -15t15.5 -38z" />
    <glyph glyph-name="copyright" unicode="&#xa9;" horiz-adv-x="759" 
d="M704 342q0 -136 -94 -230t-230 -94q-137 0 -231 94t-94 230t94 230t231 94q136 0 230 -94t94 -230zM654 342q0 117 -79 197t-195 80t-195 -80t-79 -197t79 -197t195 -80t195 80t79 197zM521 185q-49 -26 -127 -26q-82 0 -138 48.5t-56 132.5q0 95 58.5 145.5t137.5 50.5
q70 0 120 -24l-15 -71q-48 24 -100 24t-85 -30t-33 -94q0 -56 34.5 -83.5t86.5 -27.5q57 0 104 28z" />
    <glyph glyph-name="ordfeminine" unicode="&#xaa;" horiz-adv-x="368" 
d="M303 435l-72 -13l-7 24q-46 -25 -85 -25t-60 21.5t-21 54.5q0 47 42 73l117 8v14q0 40 -47 40q-37 0 -73 -24l-17 56q50 30 111 30q99 0 99 -90q0 -4 -1 -49t-1 -48q0 -17 3 -27zM217 535l-77 -6q-7 -12 -7 -26q0 -30 35 -30q25 0 48 14z" />
    <glyph glyph-name="guillemotleft" unicode="&#xab;" horiz-adv-x="466" 
d="M265 27l-81 -24l-160 209v30l160 187l81 -24l-137 -175zM446 27l-81 -24l-160 209v30l160 187l81 -24l-137 -175z" />
    <glyph glyph-name="logicalnot" unicode="&#xac;" 
d="M461 111h-98v157h-329v96h427v-253z" />
    <glyph glyph-name="uni00AD" unicode="&#xad;" horiz-adv-x="328" 
d="M290 208h-251v81h251v-81z" />
    <glyph glyph-name="registered" unicode="&#xae;" horiz-adv-x="759" 
d="M704 342q0 -136 -94 -230t-230 -94q-137 0 -231 94t-94 230t94 230t231 94q136 0 230 -94t94 -230zM654 342q0 117 -79 197t-195 80t-195 -80t-79 -197t79 -197t195 -80t195 80t79 197zM556 175l-78 -16l-104 142h-50v-137h-72v367h42q77 3 95 3q58 0 92 -28t34 -79
q0 -37 -20.5 -63.5t-52.5 -36.5v-4zM439 418q0 55 -73 55q-14 0 -42 -2v-109h40q75 0 75 56z" />
    <glyph glyph-name="macron" unicode="&#xaf;" 
d="M380 556h-262v76h262v-76z" />
    <glyph glyph-name="degree" unicode="&#xb0;" horiz-adv-x="324" 
d="M296 577q0 -61 -39.5 -96.5t-99.5 -35.5q-54 0 -91.5 34t-37.5 88q0 60 39 97t99 37q57 0 93.5 -34.5t36.5 -89.5zM224 574q0 34 -17.5 52t-43.5 18q-28 0 -46 -17.5t-18 -51.5q0 -33 17.5 -51.5t44.5 -18.5q30 0 46.5 19t16.5 50z" />
    <glyph glyph-name="plusminus" unicode="&#xb1;" 
d="M438 245h-144v-135h-89v135h-142v85h142v135h89v-135h144v-85zM438 0h-375v85h375v-85z" />
    <glyph glyph-name="twosuperior" unicode="&#xb2;" horiz-adv-x="417" 
d="M371 333l-7 -77h-318v70q124 82 168.5 131t44.5 92q0 32 -20.5 51t-60.5 19q-52 0 -101 -27l-13 78q53 25 128 25q70 0 114.5 -35t44.5 -99q0 -55 -36 -106t-140 -122h196z" />
    <glyph glyph-name="threesuperior" unicode="&#xb3;" horiz-adv-x="417" 
d="M358 395q0 -70 -73 -108t-217 -38l-9 76q202 0 202 66q0 28 -18.5 38.5t-66.5 10.5h-76v75h56q48 0 70 11.5t22 40.5q0 52 -70 52q-54 0 -98 -21l-11 76q49 20 124 20q67 0 105 -28t38 -79q0 -66 -68 -94v-4q90 -17 90 -94z" />
    <glyph glyph-name="acute" unicode="&#xb4;" 
d="M397 694l-121 -197h-75l76 197h120z" />
    <glyph glyph-name="mu" unicode="&#xb5;" horiz-adv-x="546" 
d="M480 1l-109 -9l-6 51q-62 -51 -120 -51q-41 0 -59 15v-264h-110v693l111 10v-279q0 -80 77 -80q51 0 96 43v306l111 10v-358q0 -40 9 -87z" />
    <glyph glyph-name="paragraph" unicode="&#xb6;" horiz-adv-x="513" 
d="M444 0h-65v585q-1 0 -16 3.5t-18 4.5v-593h-65v599q-6 1 -21 1q-118 0 -118 -149q0 -60 23 -88.5t61 -28.5q20 0 32 6l5 -86q-26 -13 -70 -13q-69 0 -117 51t-48 150q0 124 67.5 188t162.5 64q98 0 187 -32v-662z" />
    <glyph glyph-name="periodcentered" unicode="&#xb7;" horiz-adv-x="221" 
d="M173 240q0 -25 -18.5 -43t-44.5 -18t-44 18t-18 43q0 26 18.5 44.5t43.5 18.5q26 0 44.5 -18.5t18.5 -44.5z" />
    <glyph glyph-name="cedilla" unicode="&#xb8;" 
d="M337 -126q0 -47 -33.5 -72.5t-76.5 -25.5q-42 0 -74 17l15 59q27 -12 51 -12q18 0 30.5 9.5t12.5 28.5q0 42 -56 46l10 49q49 0 85 -24.5t36 -74.5z" />
    <glyph glyph-name="onesuperior" unicode="&#xb9;" horiz-adv-x="417" 
d="M366 333l-4 -77h-289v77h113v278l-99 -19l-9 71l119 26h77v-356h92z" />
    <glyph glyph-name="ordmasculine" unicode="&#xba;" horiz-adv-x="368" 
d="M330 562q0 -67 -42.5 -104t-108.5 -37q-61 0 -100.5 35.5t-39.5 94.5q0 67 42 105t108 38q62 0 101.5 -35.5t39.5 -96.5zM249 559q0 37 -18.5 55.5t-46.5 18.5t-46 -19t-18 -58q0 -36 18 -55t46 -19q31 0 48 20.5t17 56.5z" />
    <glyph glyph-name="guillemotright" unicode="&#xbb;" horiz-adv-x="466" 
d="M443 190l-160 -187l-82 24l137 175l-137 203l82 24l160 -209v-30zM262 190l-160 -187l-82 24l137 175l-137 203l82 24l160 -209v-30z" />
    <glyph glyph-name="onequarter" unicode="&#xbc;" horiz-adv-x="999" 
d="M366 333l-4 -77h-289v77h113v278l-99 -19l-9 71l119 26h77v-356h92zM969 98h-58v-98h-83v98h-189l-7 79l192 264l88 -8l-197 -264h113v111h83v-111h58v-71zM741 682l-364 -682h-93l366 682h91z" />
    <glyph glyph-name="onehalf" unicode="&#xbd;" horiz-adv-x="999" 
d="M366 333l-4 -77h-289v77h113v278l-99 -19l-9 71l119 26h77v-356h92zM965 77l-7 -77h-318v70q124 82 168.5 131t44.5 92q0 32 -20.5 51t-60.5 19q-52 0 -101 -27l-13 78q53 25 128 25q70 0 114.5 -35t44.5 -99q0 -55 -36 -106t-140 -122h196zM741 682l-364 -682h-93
l366 682h91z" />
    <glyph glyph-name="threequarters" unicode="&#xbe;" horiz-adv-x="999" 
d="M358 395q0 -70 -73 -108t-217 -38l-9 76q202 0 202 66q0 28 -18.5 38.5t-66.5 10.5h-76v75h56q48 0 70 11.5t22 40.5q0 52 -70 52q-54 0 -98 -21l-11 76q49 20 124 20q67 0 105 -28t38 -79q0 -66 -68 -94v-4q90 -17 90 -94zM969 98h-58v-98h-83v98h-189l-7 79l192 264
l88 -8l-197 -264h113v111h83v-111h58v-71zM741 682l-364 -682h-93l366 682h91z" />
    <glyph glyph-name="questiondown" unicode="&#xbf;" horiz-adv-x="377" 
d="M1 -75q0 77 53.5 132.5t145.5 79.5l-5 122h77l43 -182q-103 -16 -155 -49t-52 -93q0 -46 28 -69.5t73 -23.5q68 0 111 32l15 -98q-55 -29 -140 -29q-84 0 -139 45t-55 133zM169 388q0 26 19 44.5t46 18.5q26 0 44.5 -18.5t18.5 -44.5t-18.5 -44.5t-44.5 -18.5
q-27 0 -46 18.5t-19 44.5z" />
    <glyph glyph-name="Agrave" unicode="&#xc0;" horiz-adv-x="677" 
d="M655 4l-123 -8l-73 198h-252l-72 -194h-114l262 682h109zM423 291l-76 204q-9 25 -11 51h-7q-4 -32 -11 -51l-76 -204h181zM377 720h-77l-116 115h119z" />
    <glyph glyph-name="Aacute" unicode="&#xc1;" horiz-adv-x="677" 
d="M655 4l-123 -8l-73 198h-252l-72 -194h-114l262 682h109zM423 291l-76 204q-9 25 -11 51h-7q-4 -32 -11 -51l-76 -204h181zM494 835l-117 -115h-77l74 115h120z" />
    <glyph glyph-name="Acircumflex" unicode="&#xc2;" horiz-adv-x="677" 
d="M655 4l-123 -8l-73 198h-252l-72 -194h-114l262 682h109zM423 291l-76 204q-9 25 -11 51h-7q-4 -32 -11 -51l-76 -204h181zM493 724l-73 -6l-80 68l-84 -68l-72 6l116 121h83z" />
    <glyph glyph-name="Atilde" unicode="&#xc3;" horiz-adv-x="677" 
d="M655 4l-123 -8l-73 198h-252l-72 -194h-114l262 682h109zM423 291l-76 204q-9 25 -11 51h-7q-4 -32 -11 -51l-76 -204h181zM507 832q-23 -109 -95 -109q-28 0 -78.5 27.5t-62.5 27.5q-18 0 -29.5 -12.5t-23.5 -40.5l-49 17q17 59 40.5 83t58.5 24q24 0 74 -27.5t64 -27.5
q18 0 28 12t21 43z" />
    <glyph glyph-name="Adieresis" unicode="&#xc4;" horiz-adv-x="677" 
d="M655 4l-123 -8l-73 198h-252l-72 -194h-114l262 682h109zM423 291l-76 204q-9 25 -11 51h-7q-4 -32 -11 -51l-76 -204h181zM477 772q0 -23 -15.5 -39t-37.5 -16q-23 0 -38.5 16t-15.5 39t15.5 38t38.5 15t38 -15t15 -38zM304 772q0 -23 -15.5 -39t-37.5 -16q-23 0 -38 16
t-15 39t15 38t38 15t38 -15t15 -38z" />
    <glyph glyph-name="Aring" unicode="&#xc5;" horiz-adv-x="677" 
d="M442 752q0 -55 -45 -83l258 -665l-123 -8l-73 198h-252l-72 -194h-114l256 667q-45 25 -45 77q0 45 30.5 72.5t77.5 27.5q44 0 73 -25.5t29 -66.5zM423 291l-76 204q-9 25 -11 51h-7q-4 -32 -11 -51l-76 -204h181zM378 750q0 22 -11.5 33t-29.5 11q-19 0 -31 -11.5
t-12 -33.5q0 -21 12 -33t30 -12q20 0 31 12.5t11 33.5z" />
    <glyph glyph-name="AE" unicode="&#xc6;" horiz-adv-x="889" 
d="M834 103l-7 -103h-418v276h-147l-125 -283l-116 8l301 681h489l-7 -104h-280v-179h256v-102h-256v-194h310zM409 373v229h-10l-101 -229h111z" />
    <glyph glyph-name="Ccedilla" unicode="&#xc7;" horiz-adv-x="675" 
d="M629 42q-95 -52 -231 -52q-147 0 -250 91.5t-103 247.5q0 90 31 162t82 115t113 65.5t128 22.5q137 0 224 -47l-34 -110q-78 49 -186 49q-100 0 -165 -62t-65 -194q0 -116 69.5 -174t169.5 -58q99 0 190 56zM457 -126q0 -47 -33.5 -72.5t-76.5 -25.5q-42 0 -74 17l15 59
q27 -12 51 -12q18 0 30.5 9.5t12.5 28.5q0 42 -56 46l10 49q49 0 85 -24.5t36 -74.5z" />
    <glyph glyph-name="Egrave" unicode="&#xc8;" horiz-adv-x="573" 
d="M518 103l-7 -103h-420v682h404l-7 -104h-280v-179h256v-102h-256v-194h310zM330 720h-77l-116 115h119z" />
    <glyph glyph-name="Eacute" unicode="&#xc9;" horiz-adv-x="573" 
d="M518 103l-7 -103h-420v682h404l-7 -104h-280v-179h256v-102h-256v-194h310zM418 835l-117 -115h-77l74 115h120z" />
    <glyph glyph-name="Ecircumflex" unicode="&#xca;" horiz-adv-x="573" 
d="M518 103l-7 -103h-420v682h404l-7 -104h-280v-179h256v-102h-256v-194h310zM445 724l-73 -6l-80 68l-84 -68l-72 6l116 121h83z" />
    <glyph glyph-name="Edieresis" unicode="&#xcb;" horiz-adv-x="573" 
d="M518 103l-7 -103h-420v682h404l-7 -104h-280v-179h256v-102h-256v-194h310zM427 768q0 -23 -15.5 -39t-38.5 -16q-22 0 -37.5 16t-15.5 39t15 38t38 15t38.5 -15t15.5 -38zM254 768q0 -23 -15.5 -39t-38.5 -16q-22 0 -37.5 16t-15.5 39t15 38t38 15t38.5 -15t15.5 -38z
" />
    <glyph glyph-name="Igrave" unicode="&#xcc;" horiz-adv-x="300" 
d="M203 720h-77l-116 115h119zM209 0h-118v682h118v-682z" />
    <glyph glyph-name="Iacute" unicode="&#xcd;" horiz-adv-x="300" 
d="M209 0h-118v682h118v-682zM291 835l-117 -115h-77l74 115h120z" />
    <glyph glyph-name="Icircumflex" unicode="&#xce;" horiz-adv-x="300" 
d="M305 724l-73 -6l-80 68l-84 -68l-72 6l116 121h83zM209 0h-118v682h118v-682z" />
    <glyph glyph-name="Idieresis" unicode="&#xcf;" horiz-adv-x="300" 
d="M290 768q0 -23 -15.5 -39t-38.5 -16q-22 0 -37.5 16t-15.5 39t15 38t38 15t38.5 -15t15.5 -38zM117 768q0 -23 -15.5 -39t-38.5 -16q-22 0 -37.5 16t-15.5 39t15 38t38 15t38.5 -15t15.5 -38zM209 0h-118v682h118v-682z" />
    <glyph glyph-name="Eth" unicode="&#xd0;" horiz-adv-x="740" 
d="M29 305v90h62v287h53q131 7 187 7q164 0 264 -88.5t100 -246.5q0 -174 -97 -267.5t-253 -93.5l-195 7h-59v305h-62zM568 343q0 123 -69 184.5t-177 61.5q-45 0 -115 -5v-189h147v-90h-147v-206q78 -6 126 -6q106 0 170.5 67.5t64.5 182.5z" />
    <glyph glyph-name="Ntilde" unicode="&#xd1;" horiz-adv-x="775" 
d="M684 1l-94 -12l-359 488q-19 25 -28 49h-6q2 -24 2 -46v-480h-108v682h127l327 -437q16 -22 28 -50h5q-2 30 -2 49v438h108v-681zM573 832q-23 -109 -95 -109q-28 0 -78.5 27.5t-62.5 27.5q-18 0 -29.5 -12.5t-23.5 -40.5l-49 17q17 59 40.5 83t58.5 24q24 0 74 -27.5
t64 -27.5q18 0 28 12t21 43z" />
    <glyph glyph-name="Ograve" unicode="&#xd2;" horiz-adv-x="796" 
d="M751 354q0 -170 -106 -267t-260 -97q-137 0 -238.5 92t-101.5 245q0 171 104 269t258 98q143 0 243.5 -93t100.5 -247zM623 344q0 122 -63.5 185t-158.5 63q-96 0 -162 -65t-66 -186q0 -120 61.5 -184.5t160.5 -64.5q101 0 164.5 69.5t63.5 182.5zM449 720h-77l-116 115
h119z" />
    <glyph glyph-name="Oacute" unicode="&#xd3;" horiz-adv-x="796" 
d="M751 354q0 -170 -106 -267t-260 -97q-137 0 -238.5 92t-101.5 245q0 171 104 269t258 98q143 0 243.5 -93t100.5 -247zM623 344q0 122 -63.5 185t-158.5 63q-96 0 -162 -65t-66 -186q0 -120 61.5 -184.5t160.5 -64.5q101 0 164.5 69.5t63.5 182.5zM548 835l-117 -115h-77
l74 115h120z" />
    <glyph glyph-name="Ocircumflex" unicode="&#xd4;" horiz-adv-x="796" 
d="M751 354q0 -170 -106 -267t-260 -97q-137 0 -238.5 92t-101.5 245q0 171 104 269t258 98q143 0 243.5 -93t100.5 -247zM623 344q0 122 -63.5 185t-158.5 63q-96 0 -162 -65t-66 -186q0 -120 61.5 -184.5t160.5 -64.5q101 0 164.5 69.5t63.5 182.5zM551 724l-73 -6l-80 68
l-84 -68l-72 6l116 121h83z" />
    <glyph glyph-name="Otilde" unicode="&#xd5;" horiz-adv-x="796" 
d="M751 354q0 -170 -106 -267t-260 -97q-137 0 -238.5 92t-101.5 245q0 171 104 269t258 98q143 0 243.5 -93t100.5 -247zM623 344q0 122 -63.5 185t-158.5 63q-96 0 -162 -65t-66 -186q0 -120 61.5 -184.5t160.5 -64.5q101 0 164.5 69.5t63.5 182.5zM566 832
q-23 -109 -95 -109q-28 0 -78.5 27.5t-62.5 27.5q-18 0 -29.5 -12.5t-23.5 -40.5l-49 17q17 59 40.5 83t58.5 24q24 0 74 -27.5t64 -27.5q18 0 28 12t21 43z" />
    <glyph glyph-name="Odieresis" unicode="&#xd6;" horiz-adv-x="796" 
d="M751 354q0 -170 -106 -267t-260 -97q-137 0 -238.5 92t-101.5 245q0 171 104 269t258 98q143 0 243.5 -93t100.5 -247zM623 344q0 122 -63.5 185t-158.5 63q-96 0 -162 -65t-66 -186q0 -120 61.5 -184.5t160.5 -64.5q101 0 164.5 69.5t63.5 182.5zM538 772
q0 -23 -15.5 -39t-37.5 -16q-23 0 -38.5 16t-15.5 39t15.5 38t38.5 15t38 -15t15 -38zM365 772q0 -23 -15.5 -39t-37.5 -16q-23 0 -38 16t-15 39t15 38t38 15t38 -15t15 -38z" />
    <glyph glyph-name="multiply" unicode="&#xd7;" 
d="M463 95l-64 -61l-147 145l-146 -145l-65 61l149 143l-148 144l63 62l147 -146l146 146l64 -62l-148 -144z" />
    <glyph glyph-name="Oslash" unicode="&#xd8;" horiz-adv-x="796" 
d="M751 354q0 -170 -106 -267t-260 -97q-102 0 -188 52l-64 -85h-52l83 110q-119 96 -119 260q0 171 104 269t258 98q108 0 191 -53l62 82h51l-80 -106q120 -97 120 -263zM173 341q0 -118 60 -183l298 395q-55 39 -130 39q-96 0 -162 -65t-66 -186zM623 344q0 116 -61 182
l-298 -396q55 -38 131 -38q101 0 164.5 69.5t63.5 182.5z" />
    <glyph glyph-name="Ugrave" unicode="&#xd9;" horiz-adv-x="723" 
d="M638 232q0 -105 -74.5 -173.5t-199.5 -68.5q-135 0 -207 60.5t-72 181.5v450h118v-429q0 -155 162 -155q81 0 120.5 42t39.5 114v428h113v-450zM423 720h-77l-116 115h119z" />
    <glyph glyph-name="Uacute" unicode="&#xda;" horiz-adv-x="723" 
d="M638 232q0 -105 -74.5 -173.5t-199.5 -68.5q-135 0 -207 60.5t-72 181.5v450h118v-429q0 -155 162 -155q81 0 120.5 42t39.5 114v428h113v-450zM506 835l-117 -115h-77l74 115h120z" />
    <glyph glyph-name="Ucircumflex" unicode="&#xdb;" horiz-adv-x="723" 
d="M638 232q0 -105 -74.5 -173.5t-199.5 -68.5q-135 0 -207 60.5t-72 181.5v450h118v-429q0 -155 162 -155q81 0 120.5 42t39.5 114v428h113v-450zM522 724l-73 -6l-80 68l-84 -68l-72 6l116 121h83z" />
    <glyph glyph-name="Udieresis" unicode="&#xdc;" horiz-adv-x="723" 
d="M638 232q0 -105 -74.5 -173.5t-199.5 -68.5q-135 0 -207 60.5t-72 181.5v450h118v-429q0 -155 162 -155q81 0 120.5 42t39.5 114v428h113v-450zM507 772q0 -23 -15.5 -39t-37.5 -16q-23 0 -38.5 16t-15.5 39t15.5 38t38.5 15t38 -15t15 -38zM334 772q0 -23 -15.5 -39
t-37.5 -16q-23 0 -38 16t-15 39t15 38t38 15t38 -15t15 -38z" />
    <glyph glyph-name="Yacute" unicode="&#xdd;" horiz-adv-x="627" 
d="M611 682l-229 -427v-255h-118v255l-246 421l133 10l156 -284q10 -20 14 -40h9q4 22 15 41l145 279h121zM468 835l-117 -115h-77l74 115h120z" />
    <glyph glyph-name="Thorn" unicode="&#xde;" horiz-adv-x="578" 
d="M536 358q0 -111 -72.5 -169.5t-169.5 -58.5q-28 0 -48 2l-11 97q13 -2 40 -2q60 0 102 29.5t42 91.5q0 57 -35.5 87t-96.5 30q-17 0 -80 -3v-462h-116v682h116v-126q70 4 100 4q110 0 169.5 -54.5t59.5 -147.5z" />
    <glyph glyph-name="germandbls" unicode="&#xdf;" horiz-adv-x="544" 
d="M182 0h-110v497q0 107 62 165t158 58q74 0 120.5 -38.5t46.5 -107.5q0 -33 -24 -72.5l-48 -76t-24 -61.5t23.5 -52.5t51 -49.5t51 -57.5t23.5 -73.5q0 -60 -49 -100.5t-119 -40.5q-71 0 -118 24l15 87q47 -22 103 -22q58 0 58 42q0 18 -15.5 37t-37 37.5l-43.5 39
t-37.5 50t-15.5 61.5q0 39 23 80t46 76t23 59q0 64 -67 64q-96 0 -96 -135v-490z" />
    <glyph glyph-name="agrave" unicode="&#xe0;" horiz-adv-x="461" 
d="M415 14l-104 -24l-15 46q-78 -46 -138 -46q-56 0 -87 34t-31 84q0 77 69 121l175 15v45q0 37 -17.5 52.5t-54.5 15.5q-53 0 -114 -40l-29 79q78 56 176 56q70 0 107.5 -33.5t37.5 -111.5q0 -6 -1.5 -90t-1.5 -90q0 -24 8 -48zM283 178l-124 -14q-8 -14 -8 -36
q0 -55 53 -55q30 0 78 25zM292 497h-76l-120 197h120z" />
    <glyph glyph-name="aacute" unicode="&#xe1;" horiz-adv-x="461" 
d="M415 14l-104 -24l-15 46q-78 -46 -138 -46q-56 0 -87 34t-31 84q0 77 69 121l175 15v45q0 37 -17.5 52.5t-54.5 15.5q-53 0 -114 -40l-29 79q78 56 176 56q70 0 107.5 -33.5t37.5 -111.5q0 -6 -1.5 -90t-1.5 -90q0 -24 8 -48zM283 178l-124 -14q-8 -14 -8 -36
q0 -55 53 -55q30 0 78 25zM386 694l-121 -197h-75l76 197h120z" />
    <glyph glyph-name="acircumflex" unicode="&#xe2;" horiz-adv-x="461" 
d="M415 14l-104 -24l-15 46q-78 -46 -138 -46q-56 0 -87 34t-31 84q0 77 69 121l175 15v45q0 37 -17.5 52.5t-54.5 15.5q-53 0 -114 -40l-29 79q78 56 176 56q70 0 107.5 -33.5t37.5 -111.5q0 -6 -1.5 -90t-1.5 -90q0 -24 8 -48zM283 178l-124 -14q-8 -14 -8 -36
q0 -55 53 -55q30 0 78 25zM402 502l-83 -6l-91 121l-90 -121l-81 6l125 192h93z" />
    <glyph glyph-name="atilde" unicode="&#xe3;" horiz-adv-x="461" 
d="M415 14l-104 -24l-15 46q-78 -46 -138 -46q-56 0 -87 34t-31 84q0 77 69 121l175 15v45q0 37 -17.5 52.5t-54.5 15.5q-53 0 -114 -40l-29 79q78 56 176 56q70 0 107.5 -33.5t37.5 -111.5q0 -6 -1.5 -90t-1.5 -90q0 -24 8 -48zM283 178l-124 -14q-8 -14 -8 -36
q0 -55 53 -55q30 0 78 25zM404 643q-13 -62 -36 -89t-61 -27q-28 0 -79 28.5t-62 28.5q-18 0 -28 -12t-22 -44l-55 19q18 63 41 88.5t60 25.5q24 0 74 -28.5t63 -28.5q18 0 27.5 12t20.5 45z" />
    <glyph glyph-name="adieresis" unicode="&#xe4;" horiz-adv-x="461" 
d="M415 14l-104 -24l-15 46q-78 -46 -138 -46q-56 0 -87 34t-31 84q0 77 69 121l175 15v45q0 37 -17.5 52.5t-54.5 15.5q-53 0 -114 -40l-29 79q78 56 176 56q70 0 107.5 -33.5t37.5 -111.5q0 -6 -1.5 -90t-1.5 -90q0 -24 8 -48zM283 178l-124 -14q-8 -14 -8 -36
q0 -55 53 -55q30 0 78 25zM374 605q0 -23 -15.5 -39t-38.5 -16q-22 0 -37.5 16t-15.5 39t15 38t38 15t38.5 -15t15.5 -38zM201 605q0 -23 -15.5 -39t-38.5 -16q-22 0 -37.5 16t-15.5 39t15 38t38 15t38.5 -15t15.5 -38z" />
    <glyph glyph-name="aring" unicode="&#xe5;" horiz-adv-x="461" 
d="M415 14l-104 -24l-15 46q-78 -46 -138 -46q-56 0 -87 34t-31 84q0 77 69 121l175 15v45q0 37 -17.5 52.5t-54.5 15.5q-53 0 -114 -40l-29 79q78 56 176 56q70 0 107.5 -33.5t37.5 -111.5q0 -6 -1.5 -90t-1.5 -90q0 -24 8 -48zM283 178l-124 -14q-8 -14 -8 -36
q0 -55 53 -55q30 0 78 25zM340 598q0 -46 -31.5 -72.5t-78.5 -26.5q-42 0 -71 25.5t-29 66.5q0 45 30.5 72.5t77.5 27.5q44 0 73 -26t29 -67zM275 596q0 21 -11.5 32t-28.5 11q-19 0 -30.5 -11.5t-11.5 -32.5q0 -20 11.5 -31.5t29.5 -11.5q41 0 41 44z" />
    <glyph glyph-name="ae" unicode="&#xe6;" horiz-adv-x="717" 
d="M671 62q-64 -72 -178 -72q-98 0 -155 66q-64 -39 -103 -52.5t-77 -13.5q-55 0 -86.5 33.5t-31.5 84.5q0 79 69 121l175 12v48q0 38 -17.5 53t-54.5 15q-53 0 -114 -40l-29 79q79 56 176 56q80 0 108 -62q52 62 136 62q83 0 130 -48.5t47 -123.5q0 -35 -4 -71h-275
q-1 -5 -1 -8q0 -53 34 -85t91 -32q65 0 122 50zM558 278v19q0 34 -20 55.5t-56 21.5q-38 0 -63 -26t-27 -70h166zM300 107q-16 32 -16 68l-125 -11q-8 -16 -8 -36q0 -55 53 -55q39 0 96 34z" />
    <glyph glyph-name="ccedilla" unicode="&#xe7;" horiz-adv-x="448" 
d="M431 52q-66 -62 -166 -62q-102 0 -163.5 62.5t-61.5 167.5q0 109 66.5 170.5t161.5 61.5q87 0 140 -26l-26 -95q-46 25 -100 25q-55 0 -88.5 -35.5t-33.5 -102.5q0 -60 32 -95t89 -35q65 0 111 46zM337 -126q0 -47 -33.5 -72.5t-76.5 -25.5q-42 0 -74 17l15 59
q27 -12 51 -12q18 0 30.5 9.5t12.5 28.5q0 42 -56 46l10 49q49 0 85 -24.5t36 -74.5z" />
    <glyph glyph-name="egrave" unicode="&#xe8;" horiz-adv-x="481" 
d="M441 62q-64 -72 -178 -72q-91 0 -157 59t-66 167q0 111 65 173.5t150 62.5q87 0 134 -48.5t47 -124.5q0 -38 -4 -70h-274q-1 -5 -1 -8q0 -52 33.5 -84.5t90.5 -32.5q65 0 122 50zM328 278v19q0 34 -20 55.5t-56 21.5q-39 0 -63 -26.5t-27 -69.5h166zM305 497h-76
l-120 197h120z" />
    <glyph glyph-name="eacute" unicode="&#xe9;" horiz-adv-x="481" 
d="M441 62q-64 -72 -178 -72q-91 0 -157 59t-66 167q0 111 65 173.5t150 62.5q87 0 134 -48.5t47 -124.5q0 -38 -4 -70h-274q-1 -5 -1 -8q0 -52 33.5 -84.5t90.5 -32.5q65 0 122 50zM328 278v19q0 34 -20 55.5t-56 21.5q-39 0 -63 -26.5t-27 -69.5h166zM397 694l-121 -197
h-75l76 197h120z" />
    <glyph glyph-name="ecircumflex" unicode="&#xea;" horiz-adv-x="481" 
d="M441 62q-64 -72 -178 -72q-91 0 -157 59t-66 167q0 111 65 173.5t150 62.5q87 0 134 -48.5t47 -124.5q0 -38 -4 -70h-274q-1 -5 -1 -8q0 -52 33.5 -84.5t90.5 -32.5q65 0 122 50zM328 278v19q0 34 -20 55.5t-56 21.5q-39 0 -63 -26.5t-27 -69.5h166zM422 502l-83 -6
l-91 121l-90 -121l-81 6l125 192h93z" />
    <glyph glyph-name="edieresis" unicode="&#xeb;" horiz-adv-x="481" 
d="M441 62q-64 -72 -178 -72q-91 0 -157 59t-66 167q0 111 65 173.5t150 62.5q87 0 134 -48.5t47 -124.5q0 -38 -4 -70h-274q-1 -5 -1 -8q0 -52 33.5 -84.5t90.5 -32.5q65 0 122 50zM328 278v19q0 34 -20 55.5t-56 21.5q-39 0 -63 -26.5t-27 -69.5h166zM397 605
q0 -23 -15.5 -39t-38.5 -16q-22 0 -37.5 16t-15.5 39t15 38t38 15t38.5 -15t15.5 -38zM224 605q0 -23 -15.5 -39t-38.5 -16q-22 0 -37.5 16t-15.5 39t15 38t38 15t38.5 -15t15.5 -38z" />
    <glyph glyph-name="igrave" unicode="&#xec;" horiz-adv-x="265" 
d="M188 0h-111v437l111 9v-446zM187 497h-76l-120 197h120z" />
    <glyph glyph-name="iacute" unicode="&#xed;" horiz-adv-x="265" 
d="M188 0h-111v437l111 9v-446zM273 694l-121 -197h-75l76 197h120z" />
    <glyph glyph-name="icircumflex" unicode="&#xee;" horiz-adv-x="265" 
d="M188 0h-111v437l111 9v-446zM305 502l-83 -6l-91 121l-90 -121l-81 6l125 192h93z" />
    <glyph glyph-name="idieresis" unicode="&#xef;" horiz-adv-x="265" 
d="M188 0h-111v437l111 9v-446zM272 605q0 -23 -15.5 -39t-38.5 -16q-22 0 -37.5 16t-15.5 39t15 38t38 15t38.5 -15t15.5 -38zM99 605q0 -23 -15.5 -39t-38.5 -16q-22 0 -37.5 16t-15.5 39t15 38t38 15t38.5 -15t15.5 -38z" />
    <glyph glyph-name="eth" unicode="&#xf0;" horiz-adv-x="528" 
d="M484 307q0 -155 -61.5 -236t-169.5 -81q-104 0 -160.5 61.5t-56.5 174.5q0 102 57.5 162.5t145.5 60.5q77 0 122 -33q1 1 2 1q-10 133 -108 171l-95 -92l-49 33l75 72q-8 1 -15 1q-58 0 -105 -17v101q58 14 121 14q47 0 91 -11l48 46l50 -31l-39 -38q147 -79 147 -359z
M370 228q0 66 -30 99.5t-80 33.5q-47 0 -76.5 -33.5t-29.5 -102.5q0 -143 108 -143q52 0 80 37t28 109z" />
    <glyph glyph-name="ntilde" unicode="&#xf1;" horiz-adv-x="544" 
d="M470 0h-111v265q0 95 -82 95q-48 0 -89 -30v-330h-111v437l108 9v-49q59 55 128 55q157 0 157 -169v-283zM449 643q-13 -62 -36 -89t-61 -27q-28 0 -79 28.5t-62 28.5q-18 0 -28 -12t-22 -44l-55 19q18 63 41 88.5t60 25.5q24 0 74 -28.5t63 -28.5q18 0 27.5 12t20.5 45z
" />
    <glyph glyph-name="ograve" unicode="&#xf2;" horiz-adv-x="545" 
d="M505 230q0 -111 -69.5 -175.5t-172.5 -64.5q-96 0 -159.5 61t-63.5 159q0 110 68.5 176t171.5 66q97 0 161 -60t64 -162zM386 223q0 65 -32.5 101.5t-80.5 36.5q-49 0 -81 -35.5t-32 -103.5q0 -64 31.5 -101t79.5 -37q53 0 84 37.5t31 101.5zM318 497h-76l-120 197h120z
" />
    <glyph glyph-name="oacute" unicode="&#xf3;" horiz-adv-x="545" 
d="M505 230q0 -111 -69.5 -175.5t-172.5 -64.5q-96 0 -159.5 61t-63.5 159q0 110 68.5 176t171.5 66q97 0 161 -60t64 -162zM386 223q0 65 -32.5 101.5t-80.5 36.5q-49 0 -81 -35.5t-32 -103.5q0 -64 31.5 -101t79.5 -37q53 0 84 37.5t31 101.5zM430 694l-121 -197h-75
l76 197h120z" />
    <glyph glyph-name="ocircumflex" unicode="&#xf4;" horiz-adv-x="545" 
d="M505 230q0 -111 -69.5 -175.5t-172.5 -64.5q-96 0 -159.5 61t-63.5 159q0 110 68.5 176t171.5 66q97 0 161 -60t64 -162zM386 223q0 65 -32.5 101.5t-80.5 36.5q-49 0 -81 -35.5t-32 -103.5q0 -64 31.5 -101t79.5 -37q53 0 84 37.5t31 101.5zM444 502l-83 -6l-91 121
l-90 -121l-81 6l125 192h93z" />
    <glyph glyph-name="otilde" unicode="&#xf5;" horiz-adv-x="545" 
d="M505 230q0 -111 -69.5 -175.5t-172.5 -64.5q-96 0 -159.5 61t-63.5 159q0 110 68.5 176t171.5 66q97 0 161 -60t64 -162zM386 223q0 65 -32.5 101.5t-80.5 36.5q-49 0 -81 -35.5t-32 -103.5q0 -64 31.5 -101t79.5 -37q53 0 84 37.5t31 101.5zM447 643q-13 -62 -36 -89
t-61 -27q-28 0 -79 28.5t-62 28.5q-18 0 -28 -12t-22 -44l-55 19q18 63 41 88.5t60 25.5q24 0 74 -28.5t63 -28.5q18 0 27.5 12t20.5 45z" />
    <glyph glyph-name="odieresis" unicode="&#xf6;" horiz-adv-x="545" 
d="M505 230q0 -111 -69.5 -175.5t-172.5 -64.5q-96 0 -159.5 61t-63.5 159q0 110 68.5 176t171.5 66q97 0 161 -60t64 -162zM386 223q0 65 -32.5 101.5t-80.5 36.5q-49 0 -81 -35.5t-32 -103.5q0 -64 31.5 -101t79.5 -37q53 0 84 37.5t31 101.5zM412 605q0 -23 -15.5 -39
t-38.5 -16q-22 0 -37.5 16t-15.5 39t15 38t38 15t38.5 -15t15.5 -38zM239 605q0 -23 -15.5 -39t-38.5 -16q-22 0 -37.5 16t-15.5 39t15 38t38 15t38.5 -15t15.5 -38z" />
    <glyph glyph-name="divide" unicode="&#xf7;" 
d="M316 397q0 -29 -19.5 -49t-47.5 -20t-47.5 20t-19.5 49q0 28 19.5 48t47.5 20t47.5 -20t19.5 -48zM445 198h-391v70h391v-70zM315 69q0 -29 -19 -48.5t-47 -19.5t-47.5 19.5t-19.5 48.5t19.5 49t47.5 20t47 -20t19 -49z" />
    <glyph glyph-name="oslash" unicode="&#xf8;" horiz-adv-x="545" 
d="M505 230q0 -111 -69.5 -175.5t-172.5 -64.5q-57 0 -108 24l-61 -91h-43l74 110q-85 62 -85 177q0 110 68.5 176t171.5 66q59 0 109 -25l64 95h42l-76 -113q86 -60 86 -179zM160 222q0 -58 27 -96l146 217q-27 18 -60 18q-49 0 -81 -35.5t-32 -103.5zM386 223q0 58 -28 96
l-145 -218q26 -17 58 -17q53 0 84 37.5t31 101.5z" />
    <glyph glyph-name="ugrave" unicode="&#xf9;" horiz-adv-x="542" 
d="M476 2l-110 -10l-6 51q-67 -53 -138 -53q-147 0 -147 164v282l111 10v-279q0 -45 20 -62t56 -17q52 0 93 43v305l111 10v-346q0 -51 10 -98zM316 497h-76l-120 197h120z" />
    <glyph glyph-name="uacute" unicode="&#xfa;" horiz-adv-x="542" 
d="M476 2l-110 -10l-6 51q-67 -53 -138 -53q-147 0 -147 164v282l111 10v-279q0 -45 20 -62t56 -17q52 0 93 43v305l111 10v-346q0 -51 10 -98zM430 694l-121 -197h-75l76 197h120z" />
    <glyph glyph-name="ucircumflex" unicode="&#xfb;" horiz-adv-x="542" 
d="M476 2l-110 -10l-6 51q-67 -53 -138 -53q-147 0 -147 164v282l111 10v-279q0 -45 20 -62t56 -17q52 0 93 43v305l111 10v-346q0 -51 10 -98zM443 502l-83 -6l-91 121l-90 -121l-81 6l125 192h93z" />
    <glyph glyph-name="udieresis" unicode="&#xfc;" horiz-adv-x="542" 
d="M476 2l-110 -10l-6 51q-67 -53 -138 -53q-147 0 -147 164v282l111 10v-279q0 -45 20 -62t56 -17q52 0 93 43v305l111 10v-346q0 -51 10 -98zM413 605q0 -23 -15.5 -39t-38.5 -16q-22 0 -37.5 16t-15.5 39t15 38t38 15t38.5 -15t15.5 -38zM240 605q0 -23 -15.5 -39
t-38.5 -16q-22 0 -37.5 16t-15.5 39t15 38t38 15t38.5 -15t15.5 -38z" />
    <glyph glyph-name="yacute" unicode="&#xfd;" horiz-adv-x="484" 
d="M479 441l-156 -395q-102 -260 -265 -315l-61 90q127 38 190 179h-21l-146 435l119 10l90 -297q10 -43 10 -44h7q3 20 12 44l106 293h115zM408 694l-121 -197h-75l76 197h120z" />
    <glyph glyph-name="thorn" unicode="&#xfe;" horiz-adv-x="542" 
d="M501 235q0 -113 -67.5 -179t-152.5 -66q-57 0 -93 17v-264h-111v960l111 11v-318q53 56 129 56q85 0 134.5 -58t49.5 -159zM382 230q0 67 -31 100t-83 33q-47 0 -80 -39v-222q27 -20 71 -20q123 0 123 148z" />
    <glyph glyph-name="ydieresis" unicode="&#xff;" horiz-adv-x="484" 
d="M479 441l-156 -395q-102 -260 -265 -315l-61 90q127 38 190 179h-21l-146 435l119 10l90 -297q10 -43 10 -44h7q3 20 12 44l106 293h115zM394 605q0 -23 -15.5 -39t-38.5 -16q-22 0 -37.5 16t-15.5 39t15 38t38 15t38.5 -15t15.5 -38zM221 605q0 -23 -15.5 -39t-38.5 -16
q-22 0 -37.5 16t-15.5 39t15 38t38 15t38.5 -15t15.5 -38z" />
    <glyph glyph-name="dotlessi" unicode="&#x131;" horiz-adv-x="265" 
d="M188 0h-111v437l111 9v-446z" />
    <glyph glyph-name="Lslash" unicode="&#x141;" horiz-adv-x="538" 
d="M513 104l-8 -104h-414v248l-56 -27v97l56 26v338h118v-281l105 50v-96l-105 -51v-200h304z" />
    <glyph glyph-name="lslash" unicode="&#x142;" horiz-adv-x="265" 
d="M188 0h-111v295l-45 -25v90l45 24v319l111 11v-269l45 25v-89l-45 -25v-356z" />
    <glyph glyph-name="OE" unicode="&#x152;" horiz-adv-x="1077" 
d="M1022 103l-7 -103h-412v96h-3q-72 -106 -234 -106q-129 0 -225 92.5t-96 245.5q0 170 100 268t246 98q144 0 209 -97h3v85h396l-7 -104h-280v-179h256v-102h-256v-194h310zM599 345q0 124 -56.5 185t-149.5 61q-92 0 -155.5 -63t-63.5 -186q0 -121 57.5 -185.5
t153.5 -64.5q99 0 156.5 65.5t57.5 187.5z" />
    <glyph glyph-name="oe" unicode="&#x153;" horiz-adv-x="815" 
d="M773 62q-64 -72 -178 -72q-110 0 -165 81q-54 -81 -167 -81q-95 0 -159 58.5t-64 161.5q0 112 66.5 177t170.5 65q105 0 158 -78q59 78 152 78q87 0 134 -48.5t47 -124.5q0 -44 -4 -70h-275q-1 -5 -1 -8q0 -53 34 -85t91 -32q65 0 122 50zM378 223q0 72 -29 105t-77 33
q-49 0 -81 -33.5t-32 -105.5q0 -67 32 -102.5t80 -35.5q52 0 79.5 35.5t27.5 103.5zM660 278v19q0 34 -20 55.5t-56 21.5q-38 0 -62.5 -25.5t-27.5 -70.5h166z" />
    <glyph glyph-name="Scaron" unicode="&#x160;" horiz-adv-x="533" 
d="M486 188q0 -90 -66 -144t-170 -54q-59 0 -115.5 14t-90.5 36l31 104q75 -52 174 -52q49 0 81.5 22t32.5 63q0 36 -31.5 65t-76.5 52t-89.5 48.5t-76 66.5t-31.5 94q0 87 64.5 139t164.5 52q96 0 172 -21l-20 -107q-71 27 -146 27q-117 0 -117 -77q0 -31 32 -58t77.5 -50
t91 -50t77.5 -70.5t32 -99.5zM448 840l-116 -120h-83l-111 120l74 6l80 -68l85 68z" />
    <glyph glyph-name="scaron" unicode="&#x161;" horiz-adv-x="400" 
d="M357 129q0 -59 -47.5 -99t-125.5 -40q-93 0 -138 26l18 91q56 -29 128 -29q54 0 54 39q0 19 -20 34t-49 27.5t-58 28t-49 44t-20 67.5q0 57 52 95.5t132 38.5q54 0 109 -12l-16 -94q-44 17 -106 17q-61 0 -61 -36q0 -17 20.5 -31t49 -26.5t57.5 -28.5t49.5 -44.5
t20.5 -67.5zM53 686l82 6l92 -121l90 121l80 -6l-125 -192h-93z" />
    <glyph glyph-name="Ydieresis" unicode="&#x178;" horiz-adv-x="627" 
d="M611 682l-229 -427v-255h-118v255l-246 421l133 10l156 -284q10 -20 14 -40h9q4 22 15 41l145 279h121zM467 768q0 -23 -15.5 -39t-38.5 -16q-22 0 -37.5 16t-15.5 39t15 38t38 15t38.5 -15t15.5 -38zM294 768q0 -23 -15.5 -39t-38.5 -16q-22 0 -37.5 16t-15.5 39t15 38
t38 15t38.5 -15t15.5 -38z" />
    <glyph glyph-name="Zcaron" unicode="&#x17d;" horiz-adv-x="677" 
d="M611 0h-552l-10 95l409 483h-369l-4 104h512l15 -88l-415 -490h407zM498 840l-116 -120h-83l-111 120l74 6l80 -68l85 68z" />
    <glyph glyph-name="zcaron" unicode="&#x17e;" horiz-adv-x="463" 
d="M418 0h-382l-7 77l254 270h-222l-7 94h358l8 -78l-253 -269h239zM58 694l82 6l92 -121l90 121l80 -6l-125 -192h-93z" />
    <glyph glyph-name="florin" unicode="&#x192;" horiz-adv-x="513" 
d="M464 287h-157v-171q0 -108 -54.5 -165.5t-129.5 -57.5q-31 0 -43 2l-8 101q11 -1 35 -1q45 0 67 24t22 82v186h-146v91h146v95q0 108 55 164.5t128 56.5q26 0 44 -3l8 -100q-9 1 -35 1q-46 0 -67.5 -25.5t-21.5 -84.5v-104h157v-91z" />
    <glyph glyph-name="circumflex" unicode="&#x2c6;" 
d="M414 502l-83 -6l-91 121l-90 -121l-81 6l125 192h93z" />
    <glyph glyph-name="caron" unicode="&#x2c7;" 
d="M79 694l82 6l92 -121l90 121l80 -6l-125 -192h-93z" />
    <glyph glyph-name="breve" unicode="&#x2d8;" 
d="M410 672q-9 -76 -50 -119.5t-114 -43.5q-74 0 -114 43t-45 120l74 6q4 -49 28.5 -73.5t60.5 -24.5q34 0 57 25t30 73z" />
    <glyph glyph-name="dotaccent" unicode="&#x2d9;" 
d="M304 612q0 -23 -15.5 -39t-38.5 -16q-22 0 -37.5 16t-15.5 39t15.5 38.5t37.5 15.5t38 -16t16 -38z" />
    <glyph glyph-name="ring" unicode="&#x2da;" 
d="M355 598q0 -46 -31.5 -72.5t-78.5 -26.5q-42 0 -71 25.5t-29 66.5q0 45 30.5 72.5t77.5 27.5q44 0 73 -26t29 -67zM290 596q0 21 -11.5 32t-28.5 11q-19 0 -30.5 -11.5t-11.5 -32.5q0 -20 11.5 -31.5t29.5 -11.5q41 0 41 44z" />
    <glyph glyph-name="ogonek" unicode="&#x2db;" 
d="M366 0q-83 -48 -108.5 -74t-25.5 -49q0 -33 39 -33q28 0 53 13l10 -54q-34 -18 -80 -18q-44 0 -70 20t-26 57q0 38 30 69t104 69h74z" />
    <glyph glyph-name="tilde" unicode="&#x2dc;" 
d="M416 643q-13 -62 -36 -89t-61 -27q-28 0 -79 28.5t-62 28.5q-18 0 -28 -12t-22 -44l-55 19q18 63 41 88.5t60 25.5q24 0 74 -28.5t63 -28.5q18 0 27.5 12t20.5 45z" />
    <glyph glyph-name="hungarumlaut" unicode="&#x2dd;" 
d="M286 694l-100 -197h-63l60 197h103zM420 694l-99 -197h-64l61 197h102z" />
    <glyph glyph-name="endash" unicode="&#x2013;" 
d="M467 208h-434v81h434v-81z" />
    <glyph glyph-name="emdash" unicode="&#x2014;" horiz-adv-x="1000" 
d="M967 208h-934v81h934v-81z" />
    <glyph glyph-name="quoteleft" unicode="&#x2018;" horiz-adv-x="218" 
d="M21 493q17 69 38.5 112.5t78.5 120.5l81 -10q-40 -75 -56.5 -120.5t-26.5 -102.5h-115z" />
    <glyph glyph-name="quoteright" unicode="&#x2019;" horiz-adv-x="218" 
d="M202 720q-17 -69 -38.5 -112.5t-78.5 -120.5l-81 10q40 75 56.5 120.5t26.5 102.5h115z" />
    <glyph glyph-name="quotesinglbase" unicode="&#x201a;" horiz-adv-x="219" 
d="M202 122q-17 -69 -38.5 -112.5t-78.5 -120.5l-81 10q40 75 56.5 120.5t26.5 102.5h115z" />
    <glyph glyph-name="quotedblleft" unicode="&#x201c;" horiz-adv-x="398" 
d="M21 493q17 69 38.5 112.5t78.5 120.5l81 -10q-40 -75 -56.5 -120.5t-26.5 -102.5h-115zM201 493q17 69 38.5 112.5t78.5 120.5l80 -10q-40 -77 -56.5 -122t-25.5 -101h-115z" />
    <glyph glyph-name="quotedblright" unicode="&#x201d;" horiz-adv-x="398" 
d="M202 720q-17 -69 -38.5 -112.5t-78.5 -120.5l-81 10q40 75 56.5 120.5t26.5 102.5h115zM381 720q-17 -69 -38.5 -112.5t-78.5 -120.5l-80 10q40 77 56.5 122t25.5 101h115z" />
    <glyph glyph-name="quotedblbase" unicode="&#x201e;" horiz-adv-x="393" 
d="M203 122q-18 -70 -39.5 -113.5t-77.5 -119.5l-81 10q40 75 56.5 120.5t26.5 102.5h115zM383 122q-18 -70 -39.5 -113.5t-77.5 -119.5l-81 10q40 77 56.5 122t25.5 101h116z" />
    <glyph glyph-name="dagger" unicode="&#x2020;" horiz-adv-x="513" 
d="M467 200h-158v-384h-104v384h-158v100h158v198h104v-198h158v-100z" />
    <glyph glyph-name="daggerdbl" unicode="&#x2021;" horiz-adv-x="513" 
d="M467 -11h-158v-173h-104v173h-158v100h158v137h-158v100h158v172h104v-172h158v-100h-158v-137h158v-100z" />
    <glyph glyph-name="bullet" unicode="&#x2022;" horiz-adv-x="348" 
d="M303 224q0 -53 -38 -90.5t-91 -37.5t-91 37.5t-38 90.5t38 91t91 38t91 -38t38 -91z" />
    <glyph glyph-name="ellipsis" unicode="&#x2026;" horiz-adv-x="632" 
d="M179 52q0 -26 -19 -44t-45 -18q-27 0 -45.5 18t-18.5 44q0 27 18.5 45.5t45.5 18.5q26 0 45 -18.5t19 -45.5zM599 52q0 -26 -19 -44t-45 -18q-27 0 -45.5 18t-18.5 44q0 27 18.5 45.5t45.5 18.5q26 0 45 -18.5t19 -45.5zM389 52q0 -26 -19 -44t-45 -18q-27 0 -45.5 18
t-18.5 44q0 27 18.5 45.5t45.5 18.5q26 0 45 -18.5t19 -45.5z" />
    <glyph glyph-name="perthousand" unicode="&#x2030;" horiz-adv-x="1077" 
d="M331 527q0 -78 -40.5 -123.5t-109.5 -45.5t-107.5 44.5t-38.5 124.5q0 77 41.5 122t110.5 45q68 0 106 -44.5t38 -122.5zM614 682l-439 -682h-68l441 682h66zM246 527q0 97 -63 97t-63 -97t63 -97t63 97zM691 159q0 -78 -40.5 -123.5t-109.5 -45.5t-107.5 44.5
t-38.5 124.5q0 77 41.5 122t110.5 45q68 0 106 -44.5t38 -122.5zM606 160q0 96 -63 96t-63 -96q0 -98 63 -98t63 98zM1040 159q0 -78 -41 -123.5t-110 -45.5t-107.5 44.5t-38.5 124.5q0 77 41.5 122t110.5 45t107 -44.5t38 -122.5zM954 160q0 96 -63 96t-63 -96
q0 -98 63 -98t63 98z" />
    <glyph glyph-name="guilsinglleft" unicode="&#x2039;" horiz-adv-x="285" 
d="M265 27l-81 -24l-160 209v30l160 187l81 -24l-137 -175z" />
    <glyph glyph-name="guilsinglright" unicode="&#x203a;" horiz-adv-x="285" 
d="M262 190l-160 -187l-82 24l137 175l-137 203l82 24l160 -209v-30z" />
    <glyph glyph-name="fraction" unicode="&#x2044;" horiz-adv-x="183" 
d="M315 682l-364 -682h-93l366 682h91z" />
    <glyph glyph-name="Euro" unicode="&#x20ac;" horiz-adv-x="513" 
d="M471 30q-59 -40 -155 -40q-93 0 -154 58.5t-74 187.5h-61l15 67h42v28q0 20 2 52h-59l15 67h49q9 67 32 116t55 76t67 39.5t75 12.5q86 0 144 -24l-14 -95q-55 25 -119 25q-118 0 -132 -150h197l-14 -67h-188q-1 -16 -1 -50v-30h208l-14 -67h-190q8 -81 42 -114t90 -33
q68 0 125 36z" />
    <glyph glyph-name="trademark" unicode="&#x2122;" horiz-adv-x="1276" 
d="M474 595l-4 -93h-160v-420h-102v420h-161l-4 93h431zM1173 82l-102 -3l-20 321q-2 18 -2 37h-6q-3 -24 -9 -34l-136 -321h-99l-119 317q-8 27 -9 38h-6q0 -20 -2 -38l-24 -320l-89 3l42 513h118l134 -353q9 -31 10 -39h6q6 27 11 39l149 353h115z" />
    <glyph glyph-name="minus" unicode="&#x2212;" 
d="M467 208h-434v81h434v-81z" />
    <glyph glyph-name="uni2219" unicode="&#x2219;" horiz-adv-x="221" 
d="M173 240q0 -25 -18.5 -43t-44.5 -18t-44 18t-18 43q0 26 18.5 44.5t43.5 18.5q26 0 44.5 -18.5t18.5 -44.5z" />
    <glyph glyph-name="uni2224" unicode="&#x2224;" horiz-adv-x="221" 
d="M173 240q0 -25 -18.5 -43t-44.5 -18t-44 18t-18 43q0 26 18.5 44.5t43.5 18.5q26 0 44.5 -18.5t18.5 -44.5z" />
    <glyph glyph-name="logicaland" unicode="&#x2227;" horiz-adv-x="221" 
d="M173 240q0 -25 -18.5 -43t-44.5 -18t-44 18t-18 43q0 26 18.5 44.5t43.5 18.5q26 0 44.5 -18.5t18.5 -44.5z" />
    <glyph glyph-name="dotmath" unicode="&#x22c5;" horiz-adv-x="221" 
d="M173 240q0 -25 -18.5 -43t-44.5 -18t-44 18t-18 43q0 26 18.5 44.5t43.5 18.5q26 0 44.5 -18.5t18.5 -44.5z" />
    <glyph glyph-name="fi" unicode="&#xfb01;" horiz-adv-x="591" 
d="M513 608q0 -23 -16 -39t-38 -16t-38 16t-16 39t15.5 38.5t38.5 15.5t38.5 -15.5t15.5 -38.5zM515 0h-110v346h-193v-346h-110v346h-77v93h77v49q0 110 54.5 171t134.5 61q30 0 59 -4l-9 -103q-17 3 -37 3q-92 0 -92 -101v-76h211l92 7v-446z" />
    <glyph glyph-name="fl" unicode="&#xfb02;" horiz-adv-x="597" 
d="M520 0h-111v603q-38 11 -81 11q-59 0 -87.5 -26t-28.5 -84v-65h107v-93h-107v-346h-110v346h-77v93h77v49q0 112 59 168.5t154 56.5q58 0 116 -11l89 12v-714z" />
    <glyph glyph-name="CR" horiz-adv-x="240" 
 />
    <glyph glyph-name="acute.uc" horiz-adv-x="812" 
d="M548 835l-117 -115h-77l74 115h120z" />
    <glyph glyph-name="breve.uc" horiz-adv-x="812" 
d="M566 844q-25 -136 -164 -136q-141 0 -159 136l76 6q12 -71 87 -71q35 0 56 16t30 55z" />
    <glyph glyph-name="caron.uc" horiz-adv-x="812" 
d="M554 840l-116 -120h-83l-111 120l74 6l80 -68l85 68z" />
    <glyph glyph-name="circumflex.uc" horiz-adv-x="812" 
d="M564 724l-73 -6l-80 68l-84 -68l-72 6l116 121h83z" />
    <glyph glyph-name="dieresis.uc" horiz-adv-x="812" 
d="M551 772q0 -23 -15.5 -39t-37.5 -16q-23 0 -38.5 16t-15.5 39t15.5 38t38.5 15t38 -15t15 -38zM378 772q0 -23 -15.5 -39t-37.5 -16q-23 0 -38 16t-15 39t15 38t38 15t38 -15t15 -38z" />
    <glyph glyph-name="dotaccent.uc" horiz-adv-x="812" 
d="M461 772q0 -23 -15.5 -39t-37.5 -16t-38 16t-16 39q0 22 15.5 37.5t38.5 15.5q22 0 37.5 -15.5t15.5 -37.5z" />
    <glyph glyph-name="grave.uc" horiz-adv-x="812" 
d="M461 720h-77l-116 115h119z" />
    <glyph glyph-name="hungarumlaut.uc" horiz-adv-x="812" 
d="M556 835l-111 -115h-72l69 115h114zM408 835l-111 -115h-71l68 115h114z" />
    <glyph glyph-name="macron.uc" horiz-adv-x="812" 
d="M536 717h-262v76h262v-76z" />
    <glyph glyph-name="orn001" 
d="M370 534q0 -1 -15.5 -18.5t-31 -48t-15.5 -62.5q0 -30 14 -59v-1q0 -5 -37 -18q-31 -12 -36 -18q-28 12 -35 28.5t-21 28.5q-53 34 -53 83q0 30 23 76l5 58q2 27 19 33l-1 -2v-4q0 -20 15 -37q-1 7 -1 20t5 16q2 -34 11 -43q-1 5 -1 13q0 16 8 25q2 -10 10 -23.5
t12 -13.5h8q40 0 78 -25q3 6 3 14q0 24 -25 38q31 -12 31 -40q0 -5 -1 -10l-1 -6q3 0 10.5 9t8.5 15q2 -6 2 -10q0 -3 -1 -8t-1 -6q0 -2 1 -2q8 0 12 -1v-1zM442 -14q0 -5 -3 -5q-7 0 -31 3q-13 1 -19.5 7t-14.5 25l-45 97q-35 -98 -35 -177q0 -92 42 -129l-9 -7
q-60 27 -60 127q0 83 54 202q-34 65 -47 86l-10 15.5t-8.5 8t-13.5 3.5h-5q-3 0 -3 4q0 3 4 4q30 7 36 7q14 0 24 -22q26 -55 36 -78q48 104 85 131q2 2 5 2q7 0 13 -2v-3q-56 -45 -96 -142q42 -82 65 -122q10 -17 16 -23.5t17 -7.5q3 0 3 -4zM231 64q0 -67 -25.5 -164
t-66.5 -156q-3 -3 -6 -3q-2 0 -10 1v3q44 52 62 137.5t18 161.5q0 98 -25 146.5t-64 48.5q0 -11 1.5 -26.5l3.5 -38t3 -36.5q9 -90 9 -120q0 -21 -6 -25q-25 -17 -47 -17q-2 0 -2 2q0 7 3 7q15 2 20 9.5t5 32.5q0 29 -6 89q-7 69 -13 104q-2 8 -3.5 11t-4.5 5.5t-9 2.5
q-1 0 -3.5 -0.5t-4.5 -0.5q-3 0 -3 5q0 4 3 4q7 0 28 3t32 3q50 0 80.5 -45.5t30.5 -143.5zM340 526v1q-46 16 -92 16h-1q-2 0 -2 -3q0 -6 5 -11q-35 13 -45 36v-2q0 -4 5 -14t10 -18.5t5 -9.5q-36 17 -41 59q-6 -4 -13 -45q-1 -7 -6 -18.5t-7 -15.5v-2q3 7 14 18
q20 -4 26.5 -10.5t8.5 -20.5h5q12 0 21 -3q8 18 25 18q3 0 21 -2q6 -9 6 -23l-1 -6q0 -1 31 -9q25 53 25 65zM273 456v7q0 34 -16 34q-20 0 -20 -36q0 -38 18 -38q15 0 16 24q-1 -2 -6 -2q-8 0 -8 8q0 11 8 16q3 0 3 -4q0 -3 -3 -8q1 -3 4 -3q2 0 4 2zM196 483q0 26 -18 26
q-21 0 -21 -40q0 -25 16 -25q12 0 17 14q-4 -2 -6 -2q-8 0 -8 7q0 5 3.5 11t6.5 6q4 -1 4 -4q0 -5 -4 -7q0 -4 5 -4h2q3 11 3 18zM313 454l-30 -3l-3 -11q-4 -11 -8.5 -17t-12.5 -6q-26 0 -34 45q-3 15 -12 15q-5 0 -8 -3l-1 -9v-3q0 -10 -7.5 -23.5t-11.5 -26.5
q1 -9 9.5 -12.5t24.5 -4t21 -1.5q-1 -4 -15 -4q-30 0 -49 12q4 11 9 23t7.5 19t3.5 13q-9 -21 -19 -21q-9 0 -17.5 9.5t-8.5 26.5v8q-2 -10 -2 -21q0 -46 29 -72l6 -5q22 -20 29 -36q5 -10 7.5 -14t8.5 -7.5t17 -5.5q12 1 65 29q-11 29 -11 60q0 19 13 46zM300 502
q0 -2 -2 -10q-3 9 -8.5 12.5t-15 4.5t-12.5 2q16 2 20 2q18 0 18 -11zM209 511q-3 1 -12.5 5.5t-15.5 4.5q-7 0 -12 -4q3 10 11 10q9 0 29 -16zM289 383q0 -4 -1 -6q-4 9 -9 12q2 -2 2 -6q0 -12 -13 -21t-38 -9h-8q52 7 52 34v4q-4 2 -12.5 4t-9.5 2q6 1 15 1q22 0 22 -15z
" />
    <glyph glyph-name="ring.uc" horiz-adv-x="812" 
d="M511 752q0 -46 -31.5 -72.5t-78.5 -26.5q-42 0 -71 25.5t-29 65.5q0 45 30.5 72.5t77.5 27.5q44 0 73 -25.5t29 -66.5zM447 750q0 22 -11.5 33t-29.5 11q-19 0 -31 -11.5t-12 -33.5q0 -21 12 -33t30 -12q20 0 31 12.5t11 33.5z" />
    <glyph glyph-name="tilde.uc" horiz-adv-x="812" 
d="M572 832q-23 -109 -95 -109q-28 0 -78.5 27.5t-62.5 27.5q-18 0 -29.5 -12.5t-23.5 -40.5l-49 17q17 59 40.5 83t58.5 24q24 0 74 -27.5t64 -27.5q18 0 28 12t21 43z" />
    </font>
</defs>
</svg>
