<?xml version="1.0" encoding="UTF-8"?>
<svg width="24px" height="30px" viewBox="0 0 24 30" version="1.1" xmlns="http://www.w3.org/2000/svg" xmlns:xlink="http://www.w3.org/1999/xlink">
    <!-- Generator: Sketch 41.2 (35397) - http://www.bohemiancoding.com/sketch -->
    <title>i-apple</title>
    <desc>Created with Sketch.</desc>
    <defs></defs>
    <g id="Welcome" stroke="none" stroke-width="1" fill="none" fill-rule="evenodd">
        <g id="1.-Index" transform="translate(-143.000000, -3534.000000)" fill="#FFFFFF">
            <g id="Banner-5" transform="translate(0.000000, 3118.000000)">
                <g id="Text" transform="translate(130.000000, 201.000000)">
                    <g id="Group" transform="translate(0.000000, 207.000000)">
                        <g id="i-apple" transform="translate(13.000000, 8.000000)">
                            <path d="M19.3997518,15.855423 C19.3675054,12.2788858 22.3341771,10.5388888 22.4698345,10.4578813 C20.7896842,8.0132299 18.1855069,7.67921262 17.2703754,7.65258002 C15.0831778,7.42287378 12.961585,8.95868745 11.8474152,8.95868745 C10.7110065,8.95868745 8.99527397,7.67477385 7.14610793,7.71250338 C4.76654369,7.74912322 2.54042799,9.12403156 1.31951139,11.2590789 C-1.20015804,15.6124005 0.679030544,22.0097746 3.0930651,25.5286078 C4.30063836,27.2530691 5.71169771,29.1761653 7.55863986,29.1084741 C9.36555196,29.0352344 10.0405031,27.9588332 12.221029,27.9588332 C14.3815399,27.9588332 15.0153491,29.1084741 16.8989855,29.0640864 C18.8382191,29.0352344 20.0591357,27.3340766 21.224455,25.5940796 C22.6199471,23.6210473 23.1803679,21.6735379 23.2026068,21.5736657 C23.158129,21.5592397 19.437558,20.142163 19.3997518,15.855423" id="Fill-2"></path>
                            <path d="M15.8415249,5.33776258 C16.8133656,4.12486927 17.4783093,2.47475733 17.2937263,0.800232156 C15.8871147,0.862374906 14.1280163,1.77121262 13.1150335,2.95747333 C12.2188052,4.00280316 11.4182041,5.71616754 11.625026,7.32744027 C13.2051012,7.44506762 14.8274302,6.53179113 15.8415249,5.33776258" id="Fill-3"></path>
                        </g>
                    </g>
                </g>
            </g>
        </g>
    </g>
</svg>