<?xml version="1.0" encoding="UTF-8"?>
<svg width="24px" height="22px" viewBox="0 0 24 22" version="1.1" xmlns="http://www.w3.org/2000/svg" xmlns:xlink="http://www.w3.org/1999/xlink">
    <!-- Generator: Sketch 41.2 (35397) - http://www.bohemiancoding.com/sketch -->
    <title>ic_camera</title>
    <desc>Created with Sketch.</desc>
    <defs></defs>
    <g id="Welcome" stroke="none" stroke-width="1" fill="none" fill-rule="evenodd">
        <g id="35.-Photographer-profile" transform="translate(-526.000000, -235.000000)" fill="#FFFFFF">
            <path d="M526.5,244.073165 C526.5,242.115551 528.080883,240.528592 530.043345,240.528592 L545.956655,240.528592 C547.91359,240.528592 549.5,242.118382 549.5,244.073165 L549.5,252.955427 C549.5,254.913041 547.919117,256.5 545.956655,256.5 L530.043345,256.5 C528.08641,256.5 526.5,254.91021 526.5,252.955427 L526.5,244.073165 Z M538.127778,253.668613 C541.230683,253.668613 543.746085,251.048536 543.746085,247.816507 C543.746085,244.584479 541.230683,241.964402 538.127778,241.964402 C535.024872,241.964402 532.50947,244.584479 532.50947,247.816507 C532.50947,251.048536 535.024872,253.668613 538.127778,253.668613 Z M538.127778,250.166726 C539.460909,250.166726 540.541625,249.041038 540.541625,247.65243 C540.541625,246.263823 539.460909,245.138134 538.127778,245.138134 C536.794647,245.138134 535.713931,246.263823 535.713931,247.65243 C535.713931,249.041038 536.794647,250.166726 538.127778,250.166726 Z M533.071429,240.528592 L535.533375,240.528592 L542.928571,240.528592 L542.928571,238.014296 C542.928571,236.625689 541.797832,235.5 540.415693,235.5 L535.584307,235.5 C534.196482,235.5 533.071429,236.616008 533.071429,238.014296 L533.071429,240.528592 Z" id="ic_camera"></path>
        </g>
    </g>
</svg>