<?xml version="1.0" encoding="UTF-8"?>
<svg width="13px" height="12px" viewBox="0 0 13 12" version="1.1" xmlns="http://www.w3.org/2000/svg" xmlns:xlink="http://www.w3.org/1999/xlink">
    <!-- Generator: Sketch 41.2 (35397) - http://www.bohemiancoding.com/sketch -->
    <title>Calendar icon</title>
    <desc>Created with Sketch.</desc>
    <defs>
        <polygon id="path-1" points="11.973132 10.5632299 11.973132 0.01249133 0 0.01249133 0 10.5632299 11.973132 10.5632299"></polygon>
    </defs>
    <g id="Welcome" stroke="none" stroke-width="1" fill="none" fill-rule="evenodd">
        <g id="1.-Index" transform="translate(-673.000000, -463.000000)">
            <g id="Banner-1">
                <g id="Text" transform="translate(294.000000, 142.000000)">
                    <g id="Search-bar" transform="translate(0.000000, 297.000000)">
                        <g id="Date" transform="translate(359.000000, 0.000000)">
                            <g id="Calendar-icon" transform="translate(20.441211, 24.119294)">
                                <path d="M2.92675531,2.68038598 L3.09809113,2.68038598 C3.35845982,2.68038598 3.56961964,2.47400748 3.56961964,2.21953435 L3.56961964,0.472256758 C3.56961964,0.217783624 3.35845982,0.0114352997 3.09809113,0.0114352997 L2.92675531,0.0114352997 C2.66638661,0.0114352997 2.4552268,0.217783624 2.4552268,0.472256758 L2.4552268,2.21953435 C2.4552268,2.47400748 2.66638661,2.68038598 2.92675531,2.68038598" id="Fill-1" fill="#4A4A4A"></path>
                                <g id="Group-8" transform="translate(0.000000, 0.000000)">
                                    <path d="M8.9742613,2.66895068 L9.14562798,2.66895068 C9.40599668,2.66895068 9.61703301,2.46257218 9.61703301,2.20809905 L9.61703301,0.460700769 C9.61703301,0.206348324 9.40599668,4.54747351e-13 9.14562798,4.54747351e-13 L8.9742613,4.54747351e-13 C8.71379998,4.54747351e-13 8.50276365,0.206348324 8.50276365,0.460700769 L8.50276365,2.20809905 C8.50276365,2.46257218 8.71392347,2.66895068 8.9742613,2.66895068" id="Fill-3" fill="#4A4A4A"></path>
                                    <g id="Group-7" transform="translate(0.000000, 0.935341)">
                                        <mask id="mask-2" fill="white">
                                            <use xlink:href="#path-1"></use>
                                        </mask>
                                        <g id="Clip-6"></g>
                                        <path d="M11.2103943,9.81411215 L0.766473085,9.81411215 L0.766473085,2.97797532 L11.2105178,2.97797532 L11.2108574,9.81411215 L11.2103943,9.81411215 Z M11.2103943,0.01249133 L10.000393,0.01249133 L10.000393,1.39344709 C10.000393,1.85405734 9.61690952,2.10816841 9.14562798,2.10816841 L8.9742613,2.10816841 C8.50301062,2.10816841 8.11952711,1.73336816 8.11952711,1.27275791 L8.11952711,0.01249133 L3.95285618,0.01249133 L3.95285618,1.28419321 C3.95285618,1.74480346 3.56937267,2.11960371 3.09809113,2.11960371 L2.92675531,2.11960371 C2.45547377,2.11960371 2.07199026,1.74480346 2.07199026,1.28419321 L2.07199026,0.01249133 L0.766473085,0.01249133 C0.343813869,0.01249133 0,0.348610694 0,0.761729754 L0,9.81411215 C0,10.2272312 0.343813869,10.5632299 0.766473085,10.5632299 L11.2103943,10.5632299 C11.6330536,10.5632299 11.9768674,10.2272312 11.9768674,9.81411215 L11.9768674,0.761729754 C11.9768674,0.348610694 11.6330536,0.01249133 11.2103943,0.01249133 L11.2103943,0.01249133 Z" id="Fill-5" fill="#4A4A4A" mask="url(#mask-2)"></path>
                                    </g>
                                </g>
                                <g id="Group-29" transform="translate(1.790536, 4.827567)" fill="#4A4A4A">
                                    <path d="M4.59355952,1.37872301 L5.96986462,1.37872301 C6.02438337,1.37872301 6.06862197,1.33557663 6.06862197,1.28220184 L6.06862197,0.117490916 C6.06862197,0.0641161264 6.02438337,0.0208490557 5.96986462,0.0208490557 L4.59355952,0.0208490557 C4.53904077,0.0208490557 4.49480217,0.0641161264 4.49480217,0.117490916 L4.49480217,1.28220184 C4.49480217,1.33557663 4.53904077,1.37872301 4.59355952,1.37872301" id="Fill-9"></path>
                                    <path d="M6.83969488,1.37872301 L8.21599998,1.37872301 C8.27048786,1.37872301 8.31475733,1.33557663 8.31475733,1.28220184 L8.31475733,0.117490916 C8.31475733,0.0641161264 8.27048786,0.0208490557 8.21599998,0.0208490557 L6.83969488,0.0208490557 C6.78517613,0.0208490557 6.74090666,0.0641161264 6.74090666,0.117490916 L6.74090666,1.28220184 C6.74090666,1.33557663 6.78517613,1.37872301 6.83969488,1.37872301" id="Fill-11"></path>
                                    <path d="M0.101535765,3.28570256 L1.47784087,3.28570256 C1.53235962,3.28570256 1.57659821,3.24243549 1.57659821,3.1890607 L1.57659821,2.02434977 C1.57659821,1.97097498 1.53235962,1.9278286 1.47784087,1.9278286 L0.101535765,1.9278286 C0.0470170174,1.9278286 0.00277841863,1.97097498 0.00277841863,2.02434977 L0.00277841863,3.1890607 C0.00277841863,3.24243549 0.0470170174,3.28570256 0.101535765,3.28570256" id="Fill-13"></path>
                                    <path d="M2.34754764,3.28570256 L3.72385274,3.28570256 C3.77837149,3.28570256 3.82261009,3.24243549 3.82261009,3.1890607 L3.82261009,2.02434977 C3.82261009,1.97097498 3.77837149,1.9278286 3.72385274,1.9278286 L2.34754764,1.9278286 C2.29302889,1.9278286 2.24879029,1.97097498 2.24879029,2.02434977 L2.24879029,3.1890607 C2.24879029,3.24243549 2.29302889,3.28570256 2.34754764,3.28570256" id="Fill-15"></path>
                                    <path d="M4.593683,3.28570256 L5.96986462,3.28570256 C6.02447598,3.28570256 6.06862197,3.24243549 6.06862197,3.1890607 L6.06862197,2.02434977 C6.06862197,1.97097498 6.02447598,1.9278286 5.96986462,1.9278286 L4.593683,1.9278286 C4.53904077,1.9278286 4.49480217,1.97097498 4.49480217,2.02434977 L4.49480217,3.1890607 C4.49480217,3.24243549 4.53904077,3.28570256 4.593683,3.28570256" id="Fill-17"></path>
                                    <path d="M6.83969488,3.28570256 L8.21599998,3.28570256 C8.27048786,3.28570256 8.31475733,3.24243549 8.31475733,3.1890607 L8.31475733,2.02434977 C8.31475733,1.97097498 8.27048786,1.9278286 8.21599998,1.9278286 L6.83969488,1.9278286 C6.78517613,1.9278286 6.74090666,1.97097498 6.74090666,2.02434977 L6.74090666,3.1890607 C6.74090666,3.24243549 6.78517613,3.28570256 6.83969488,3.28570256" id="Fill-19"></path>
                                    <path d="M1.47784087,3.83468746 L0.101535765,3.83468746 C0.0470170174,3.83468746 0.00277841863,3.87795453 0.00277841863,3.9312388 L0.00277841863,5.09604024 C0.00277841863,5.14932452 0.0470170174,5.19256141 0.101535765,5.19256141 L1.47784087,5.19256141 C1.53235962,5.19256141 1.57659821,5.14932452 1.57659821,5.09604024 L1.57659821,3.9312388 C1.57659821,3.87795453 1.53235962,3.83468746 1.47784087,3.83468746" id="Fill-21"></path>
                                    <path d="M3.72385274,3.83468746 L2.34754764,3.83468746 C2.29302889,3.83468746 2.24879029,3.87795453 2.24879029,3.9312388 L2.24879029,5.09604024 C2.24879029,5.14932452 2.29302889,5.19256141 2.34754764,5.19256141 L3.72385274,5.19256141 C3.77849498,5.19256141 3.82261009,5.14932452 3.82261009,5.09604024 L3.82261009,3.9312388 C3.82261009,3.87795453 3.77849498,3.83468746 3.72385274,3.83468746" id="Fill-23"></path>
                                    <path d="M5.96986462,3.83468746 L4.593683,3.83468746 C4.53904077,3.83468746 4.49492566,3.87795453 4.49492566,3.9312388 L4.49492566,5.09604024 C4.49492566,5.14932452 4.53904077,5.19256141 4.593683,5.19256141 L5.96986462,5.19256141 C6.02447598,5.19256141 6.06874545,5.14932452 6.06874545,5.09604024 L6.06874545,3.9312388 C6.06874545,3.87795453 6.02447598,3.83468746 5.96986462,3.83468746" id="Fill-25"></path>
                                    <path d="M8.21599998,3.83468746 L6.83969488,3.83468746 C6.78517613,3.83468746 6.74090666,3.87795453 6.74090666,3.9312388 L6.74090666,5.09604024 C6.74090666,5.14932452 6.78517613,5.19256141 6.83969488,5.19256141 L8.21599998,5.19256141 C8.27048786,5.19256141 8.31475733,5.14932452 8.31475733,5.09604024 L8.31475733,3.9312388 C8.31475733,3.87795453 8.27048786,3.83468746 8.21599998,3.83468746" id="Fill-27"></path>
                                </g>
                            </g>
                        </g>
                    </g>
                </g>
            </g>
        </g>
    </g>
</svg>