<?xml version="1.0" encoding="UTF-8"?>
<svg width="14px" height="14px" viewBox="0 0 14 14" version="1.1" xmlns="http://www.w3.org/2000/svg" xmlns:xlink="http://www.w3.org/1999/xlink">
    <!-- Generator: Sketch 41.2 (35397) - http://www.bohemiancoding.com/sketch -->
    <title>Instagram</title>
    <desc>Created with Sketch.</desc>
    <defs></defs>
    <g id="Welcome" stroke="none" stroke-width="1" fill="none" fill-rule="evenodd">
        <g id="1.-Index" transform="translate(-1224.000000, -3859.000000)" fill="#FFFFFF">
            <g id="Footer" transform="translate(0.000000, 3738.000000)">
                <g id="Group-30" transform="translate(1152.000000, 60.000000)">
                    <path d="M84.768,61 L73.232,61 C72.56,61 72,61.56 72,62.232 L72,65.662 L76.662,65.662 C77.362,65.158 78.104,64.724 79,64.724 C79.868,64.724 80.652,65.158 81.338,65.662 L86,65.662 L86,62.232 C86,61.56 85.44,61 84.768,61 L84.768,61 Z M85.062,64.248 C85.062,64.514 84.852,64.738 84.586,64.738 L82.752,64.738 C82.486,64.738 82.262,64.514 82.262,64.248 L82.262,62.414 C82.262,62.148 82.486,61.938 82.752,61.938 L84.586,61.938 C84.852,61.938 85.062,62.148 85.062,62.414 L85.062,64.248 Z M81.338,68.462 C81.338,67.174 80.288,66.138 79,66.138 C77.712,66.138 76.662,67.174 76.662,68.462 C76.662,69.75 77.712,70.8 79,70.8 C80.288,70.8 81.338,69.75 81.338,68.462 L81.338,68.462 Z M82.57,67.538 C82.654,67.818 82.682,68.112 82.682,68.406 C82.682,70.45 81.03,72.102 79,72.102 C76.97,72.102 75.318,70.45 75.318,68.406 C75.318,68.112 75.346,67.818 75.43,67.538 L72,67.538 L72,73.768 C72,74.44 72.56,75 73.232,75 L84.768,75 C85.44,75 86,74.44 86,73.768 L86,67.538 L82.57,67.538 Z" id="Instagram"></path>
                </g>
            </g>
        </g>
    </g>
</svg>