<?xml version="1.0" encoding="UTF-8"?>
<svg width="23px" height="23px" viewBox="0 0 23 23" version="1.1" xmlns="http://www.w3.org/2000/svg" xmlns:xlink="http://www.w3.org/1999/xlink">
    <!-- Generator: Sketch 41.2 (35397) - http://www.bohemiancoding.com/sketch -->
    <title>Page 1</title>
    <desc>Created with Sketch.</desc>
    <defs></defs>
    <g id="Welcome" stroke="none" stroke-width="1" fill="none" fill-rule="evenodd">
        <g id="41.-Photographer's-profile-Edit" transform="translate(-858.000000, -943.000000)" fill="#FFFFFF">
            <g id="Group-32-Copy" transform="translate(851.000000, 878.000000)">
                <g id="Group-Copy-2" transform="translate(0.000000, 58.000000)">
                    <g id="Page-1" transform="translate(7.916667, 7.916667)">
                        <path d="M18.4750495,4.61405298 L16.6329168,20.0929914 L4.98638659,20.0929914 L3.14425385,4.61405298 L18.4750495,4.61405298 Z M8.13064044,3.08867125 L13.4886629,3.08867125 L13.4886629,1.52538173 L8.13064044,1.52538173 L8.13064044,3.08867125 Z M0.763039709,4.61405298 L1.59980194,4.61405298 L3.55379756,20.9306839 C3.59100767,21.32139 3.92543348,21.6002332 4.31613958,21.6002332 L17.3022336,21.6002332 C17.6929397,21.6002332 18.0099232,21.32139 18.0655058,20.9306839 L20.0185712,4.61405298 L20.8562637,4.61405298 C21.2841799,4.61405298 21.6193034,4.27869691 21.6193034,3.85101327 C21.6193034,3.42309707 21.2841799,3.08867125 20.8562637,3.08867125 L15.0140447,3.08867125 L15.0140447,0.763039709 C15.0140447,0.335123505 14.6796189,0 14.2517027,0 L7.36760073,0 C6.93968452,0 6.60432846,0.335123505 6.60432846,0.763039709 L6.60432846,3.08867125 L0.763039709,3.08867125 C0.335123505,3.08867125 0,3.42309707 0,3.85101327 C0,4.27869691 0.353495995,4.61405298 0.763039709,4.61405298 L0.763039709,4.61405298 Z" id="Fill-1"></path>
                        <path d="M8.67993894,18.5771291 C9.10762258,18.5771291 9.4420484,18.2429358 9.4420484,17.8150196 L9.4420484,8.67970638 C9.4420484,8.25179017 9.10762258,7.91666667 8.67993894,7.91666667 C8.25202274,7.91666667 7.91666667,8.25179017 7.91666667,8.67970638 L7.91666667,17.8150196 C7.91666667,18.2429358 8.25202274,18.5771291 8.67993894,18.5771291" id="Fill-3"></path>
                        <path d="M13.4297064,18.5771291 C13.8576226,18.5771291 14.1929786,18.2429358 14.1929786,17.8150196 L14.1929786,8.67970638 C14.1929786,8.25179017 13.8576226,7.91666667 13.4297064,7.91666667 C13.0020227,7.91666667 12.6666667,8.25179017 12.6666667,8.67970638 L12.6666667,17.8150196 C12.6666667,18.2429358 13.0210929,18.5771291 13.4297064,18.5771291" id="Fill-5"></path>
                    </g>
                </g>
            </g>
        </g>
    </g>
</svg>