<?xml version="1.0" encoding="UTF-8"?>
<svg width="368px" height="225px" viewBox="0 0 368 225" version="1.1" xmlns="http://www.w3.org/2000/svg" xmlns:xlink="http://www.w3.org/1999/xlink">
    <!-- Generator: Sketch 41.2 (35397) - http://www.bohemiancoding.com/sketch -->
    <title>Cheese Logo</title>
    <desc>Created with Sketch.</desc>
    <defs>
        <path d="M349.455932,123.48202 C350.373719,134.257546 351.602655,142.257823 352.217094,142.257823 C353.270741,142.257823 356.536416,114.9442 374.392893,89.5983767 C375.373353,88.2063029 381.288918,86.9301302 385.48584,86.9301302 C388.713659,86.9301302 390.217788,88.0828429 390.217788,89.0642235 C390.217788,93.653658 380.810676,115.504808 380.810676,141.916418 C380.810676,162.487616 381.574097,169.85112 385.299086,169.85112 C387.14543,169.85112 392.076118,165.862474 397.993223,158.934085 C397.49312,156.732919 397.165426,155.139812 397.165426,155.139812 L397.224985,155.073984 C395.74931,147.620167 394.708721,138.336267 394.708721,126.950049 C394.708721,91.5724761 410.533616,60.8372488 418.339437,60.8372488 C427.749072,60.8372488 437.211705,68.7210481 437.211705,80.3665964 C437.211705,109.491279 425.757086,134.807507 413.45946,152.390717 L413.508101,152.930443 C413.508101,152.930443 413.486246,152.972928 413.44444,153.053866 C417.117953,179.87905 426.472657,183.618164 430.528934,183.618164 C433.356285,183.618164 438.967029,176.140338 444.757851,164.886805 C444.809557,165.021495 444.868487,165.172361 444.934211,165.336658 C441.023339,158.176259 436.672894,145.680085 436.672894,126.522979 C436.672894,98.3489153 447.74439,79.1395557 456.347701,79.1395557 C462.76296,79.1395557 471.16059,85.9701661 471.16059,98.7759859 C471.16059,115.529678 465.016104,139.867366 456.487683,159.651451 L456.50005,159.685852 C456.50005,159.685852 456.487156,159.745002 456.46214,159.855298 C459.921543,166.647835 464.002465,169.316967 466.398358,169.316967 C469.045577,169.316967 473.647657,163.343924 478.295963,155.089346 L478.318644,155.200937 C475.682944,149.934492 472.97892,141.582712 472.97892,130.311183 C472.97892,110.94183 481.158249,95.3606807 485.862436,95.3606807 C490.72814,95.3606807 498.944063,100.592611 498.944063,112.229341 C498.944063,121.90061 494.101667,137.245171 487.722646,150.595547 L487.787525,150.830124 L487.692091,151.018802 C490.293239,157.339651 493.630971,158.432335 494.63105,158.432335 C497.629766,158.432335 506.897564,142.957029 515.47102,125.147458 L514.874962,124.091886 C507.618093,111.615127 501.327702,98.7749314 501.327702,86.5761277 C501.327702,64.6456101 511.485616,52.8161317 519.50469,52.8161317 C530.514355,52.8161317 537.62868,64.2034219 537.62868,77.5144197 C537.62868,85.5014282 533.13492,99.8373471 526.931893,114.634639 L527.027807,114.816557 L526.981158,115.007845 C530.198726,121.010657 533.811262,127.273872 537.212641,133.536765 L537.251165,133.50226 C537.251165,133.50226 538.161178,135.058862 539.260602,136.971625 C541.598397,135.563066 543.930406,134.195058 546.207695,132.856749 L546.038797,132.962766 C546.038797,132.962766 545.988788,133.00295 545.911407,133.077126 C545.904749,132.74915 545.901387,132.417605 545.901387,132.082456 C545.901387,113.673066 554.187973,97.291947 564.345887,97.291947 C569.051336,97.291947 578.568229,102.579308 578.568229,112.073126 C578.568229,120.523833 569.764474,127.846348 558.634487,135.070847 L558.629294,135.210107 L558.567721,135.288252 C559.264459,153.017279 567.232823,156.574137 572.955508,156.574137 C578.781482,156.574137 584.50146,149.744786 585.302737,142.223808 C585.346902,141.813115 585.749433,141.540999 586.025778,141.540999 C587.04157,141.540999 590.457405,143.981223 590.457405,147.9395 C590.457405,155.091358 582.631395,161.434428 572.675377,161.434428 C564.27016,161.434428 551.171765,157.433275 547.130436,142.255063 L547.108407,142.258837 C547.108407,142.258837 547.104268,142.246614 547.096495,142.223304 C545.794493,143.014956 544.490239,143.809473 543.192089,144.608184 C543.222762,144.945896 543.150175,145.092529 543.150175,145.092529 L543.140209,145.099854 C547.290772,153.895694 550.247207,162.362263 550.247207,169.741518 C550.247207,188.683801 536.653268,199.553315 524.507936,199.553315 C518.06744,199.553315 506.100029,193.06033 506.100029,176.468825 C506.100029,163.206285 515.505078,153.192509 527.141434,144.836636 L526.979392,144.426304 C524.568286,140.18281 521.896962,135.819133 519.215543,131.382481 L519.304424,131.316607 C510.168296,149.726513 499.946529,165.208774 494.57679,165.208774 C490.193114,165.208774 485.274412,163.341758 482.865536,161.712842 C482.664143,161.576754 482.394519,161.334535 482.073374,160.987184 L482.179738,160.998293 C476.531895,170.45181 470.472542,177.214624 465.757337,177.214624 C459.551185,177.214624 453.089107,174.784619 450.298116,172.594486 C450.262138,172.589675 450.226202,172.583808 450.190312,172.576909 C443.371973,184.866681 435.765855,193.302211 428.791362,193.302211 C419.702237,193.302211 409.544323,184.738122 406.683703,180.362853 C405.975623,179.279115 404.174373,176.561691 402.177712,171.806927 C401.694824,171.769839 401.050463,170.254477 400.385003,168.151291 C393.894922,174.636666 388.34328,178.228759 385.619596,178.228759 C381.61069,178.228759 372.734819,170.811084 370.329727,168.24992 C367.923374,165.688756 366.479815,160.807049 366.479815,143.598245 C366.479815,126.470067 370.213637,115.335996 372.0408,108.060678 C362.150398,126.522979 357.872718,157.045301 353.809552,157.045301 C351.403199,157.045301 343.059829,154.057066 341.776525,152.775854 C341.465735,152.465571 340.891103,151.321522 340.198814,149.21953 L340.114151,149.07274 C330.450125,173.004219 320.120649,190.971589 312.52047,190.971589 C300.987137,190.971589 286.338289,179.918145 280.777304,170.046389 C278.203124,165.475851 268.536071,147.032447 268.536071,120.521314 C268.536071,57.3778507 287.034831,34.659961 294.951695,34.659961 C310.023264,34.659961 320.303578,44.9134354 323.458209,49.2181562 C325.565503,52.094269 327.636204,58.49025 327.636204,68.8382091 C327.636204,95.1981671 312.353906,104.186807 306.500171,104.186807 C305.336743,104.186807 303.928515,103.546831 303.928515,102.242943 C303.928515,100.939055 312.45233,89.861674 312.45233,66.7041157 C312.45233,56.7794479 309.464263,48.511411 304.891309,48.511411 C297.620514,48.511411 285.429755,74.7277523 285.429755,120.308408 C285.429755,150.888681 299.249565,180.13105 311.652316,180.13105 C316.707834,180.13105 327.038683,159.06101 336.803691,132.674104 L336.806269,133.047653 C335.630661,124.490773 334.722768,112.874831 334.722768,97.6560278 C334.722768,54.913691 347.340033,21 353.221529,21 C359.543411,21 363.9498,23.8282406 366.146686,27.7588021 C367.197809,29.6421961 367.653338,36.4652478 367.653338,41.5208066 C367.653338,58.7649321 359.777191,92.4975739 349.444117,123.557256 L349.455932,123.48202 Z M348.303051,97.8010231 C348.343659,77.0455287 353.9019,38.9936571 358.089756,38.9936571 C358.743396,38.9936571 359.419749,39.3060863 359.419749,41.9478772 C359.419749,54.7969254 354.810507,75.9121918 348.365289,97.8143964 L348.357608,97.767361 L348.303051,97.8010231 Z M559.011238,124.968714 C565.977643,120.220966 570.762408,115.581127 570.762408,110.471926 C570.762408,108.66034 570.120125,105.509592 567.982547,105.509592 C566.180083,105.509592 560.694407,112.103514 559.013518,124.907579 L559.011238,124.968714 Z M531.57066,153.136897 C534.524753,159.356162 536.453896,165.214578 536.453896,170.541488 C536.453896,184.841425 530.554734,192.829788 524.828447,192.829788 C520.355179,192.829788 513.518461,187.174566 513.518461,176.669133 C513.518461,167.446023 521.114713,159.665659 531.115558,152.502366 L531.57066,153.136897 Z M523.204734,107.897662 C528.382627,95.3774322 532.149716,83.7498249 532.149716,77.4615083 C532.149716,71.1121397 528.306113,65.8184796 525.011415,65.8184796 C520.039716,65.8184796 516.965843,71.5820433 516.965843,87.3760977 C516.965843,93.1224683 519.553626,100.143332 523.286011,107.817917 L523.204734,107.897662 Z M485.282774,141.77479 C484.713568,138.083315 484.365878,133.589688 484.365878,128.124179 C484.365878,117.825351 488.536302,108.647742 490.300372,108.647742 C491.583676,108.647742 493.147111,110.034777 493.147111,113.343 C493.147111,120.081307 489.643407,131.017869 485.070569,141.443962 L485.154242,141.310114 L485.282774,141.77479 Z M452.321283,148.06105 C458.414975,132.528098 463.290415,114.312808 463.290415,98.6159919 C463.290415,94.3465454 461.497322,92.8637663 459.914959,92.8637663 C456.935725,92.8637663 450.252953,108.96899 450.252953,126.415896 C450.252953,135.38539 451.126495,142.677117 452.490739,148.532457 L452.321283,148.06105 Z M412.172892,138.553156 C412.010836,135.064561 411.924178,131.310136 411.924178,127.270037 C411.924178,99.73595 422.83037,76.4713091 426.145257,76.4713091 C428.229838,76.4713091 429.032376,77.7827561 429.032376,81.0607436 C429.032376,102.633314 421.263382,122.895168 412.216713,138.60083 L412.208835,138.513431 L412.172892,138.553156 Z" id="path-1"></path>
        <filter x="-50%" y="-50%" width="200%" height="200%" filterUnits="objectBoundingBox" id="filter-2">
            <feOffset dx="0" dy="2" in="SourceAlpha" result="shadowOffsetOuter1"></feOffset>
            <feGaussianBlur stdDeviation="12" in="shadowOffsetOuter1" result="shadowBlurOuter1"></feGaussianBlur>
            <feColorMatrix values="0 0 0 0 0   0 0 0 0 0   0 0 0 0 0  0 0 0 0.5 0" type="matrix" in="shadowBlurOuter1"></feColorMatrix>
        </filter>
    </defs>
    <g id="Welcome" stroke="none" stroke-width="1" fill="none" fill-rule="evenodd">
        <g id="1.-Index" transform="translate(-539.000000, -142.000000)">
            <g id="Banner-1">
                <g id="Text" transform="translate(294.000000, 142.000000)">
                    <g id="Cheese-Logo">
                        <use fill="black" fill-opacity="1" filter="url(#filter-2)" xlink:href="#path-1"></use>
                        <use fill="#FFFFFF" fill-rule="evenodd" xlink:href="#path-1"></use>
                    </g>
                </g>
            </g>
        </g>
    </g>
</svg>