<?xml version="1.0" encoding="UTF-8"?>
<svg width="93px" height="51px" viewBox="0 0 93 51" version="1.1" xmlns="http://www.w3.org/2000/svg" xmlns:xlink="http://www.w3.org/1999/xlink">
    <!-- Generator: sketchtool 41.2 (35397) - http://www.bohemiancoding.com/sketch -->
    <title>A040BA8D-CA30-4572-BC0B-AEAB4B1BA311</title>
    <desc>Created with sketchtool.</desc>
    <defs></defs>
    <g id="Welcome" stroke="none" stroke-width="1" fill="none" fill-rule="evenodd">
        <g id="11.-Log-in" transform="translate(-674.000000, -186.000000)" fill="#000000">
            <path d="M697.137872,215.271834 C697.4003,218.349636 697.751696,220.634747 697.927386,220.634747 C698.228661,220.634747 699.162434,212.833185 704.268237,205.593684 C704.548586,205.196067 706.240057,204.831555 707.440106,204.831555 C708.363055,204.831555 708.793139,205.160803 708.793139,205.441114 C708.793139,206.75199 706.10331,212.993311 706.10331,220.537232 C706.10331,226.412962 706.321599,228.516193 707.386707,228.516193 C707.914642,228.516193 709.324502,227.37692 711.016413,225.397971 C710.873416,224.769254 710.779716,224.314217 710.779716,224.314217 L710.796746,224.295414 C710.374798,222.166386 710.077257,219.514636 710.077257,216.262404 C710.077257,206.157544 714.602158,197.378672 716.83412,197.378672 C719.52467,197.378672 722.230374,199.630514 722.230374,202.95682 C722.230374,211.275673 718.95509,218.506721 715.438761,223.528995 L715.452669,223.683157 C715.452669,223.683157 715.44642,223.695292 715.434466,223.71841 C716.484855,231.38046 719.159698,232.448459 720.319532,232.448459 C721.127972,232.448459 722.732284,230.312575 724.388086,227.09824 C724.402871,227.136712 724.419721,227.179803 724.438514,227.226731 C723.320256,225.181514 722.076309,221.612244 722.076309,216.14042 C722.076309,208.093091 725.242044,202.606342 727.702037,202.606342 C729.536389,202.606342 731.93757,204.557362 731.93757,208.215075 C731.93757,213.000415 730.180643,219.951964 727.742063,225.602871 L727.745599,225.612697 C727.745599,225.612697 727.741913,225.629592 727.73476,225.661096 C728.723926,227.601242 729.890807,228.363623 730.575878,228.363623 C731.332812,228.363623 732.648711,226.657549 733.977828,224.299802 L733.984313,224.331676 C733.230672,222.827426 732.457495,220.441916 732.457495,217.222441 C732.457495,211.689992 734.796257,207.239565 736.141352,207.239565 C737.53263,207.239565 739.881855,208.733956 739.881855,212.057743 C739.881855,214.820138 738.497241,219.20299 736.673251,223.016245 L736.691803,223.083245 L736.664515,223.137137 C737.408276,224.942554 738.362653,225.254657 738.648611,225.254657 C739.506051,225.254657 742.156044,220.834461 744.607501,215.747531 L744.437067,215.446029 C742.362069,211.882306 740.563422,208.214774 740.563422,204.730442 C740.563422,198.466451 743.467932,195.087609 745.760871,195.087609 C748.908927,195.087609 750.943166,198.340149 750.943166,202.142156 C750.943166,204.423477 749.65824,208.51823 747.884573,212.744766 L747.911998,212.796727 L747.89866,212.851364 C748.818678,214.565943 749.85163,216.354897 750.824205,218.143761 L750.835221,218.133905 C750.835221,218.133905 751.095426,218.578516 751.40979,219.124856 C752.078249,218.722531 752.745054,218.331788 753.396212,217.949528 L753.347918,217.97981 C753.347918,217.97981 753.333618,217.991288 753.311492,218.012474 C753.309589,217.918795 753.308627,217.824096 753.308627,217.728368 C753.308627,212.470113 755.678058,207.79119 758.582567,207.79119 C759.928023,207.79119 762.649241,209.301414 762.649241,212.013123 C762.649241,214.42689 760.131934,216.518413 756.949474,218.581939 L756.947989,218.621715 L756.930383,218.644036 C757.129606,223.70796 759.408045,224.723901 761.044365,224.723901 C762.710218,224.723901 764.345764,222.773241 764.574877,220.625032 C764.587505,220.507726 764.702603,220.430002 764.781621,220.430002 C765.072071,220.430002 766.04878,221.127 766.04878,222.257599 C766.04878,224.300377 763.811045,226.112141 760.964265,226.112141 C758.560914,226.112141 754.815615,224.969296 753.660056,220.633957 L753.653757,220.635037 C753.653757,220.635037 753.652574,220.631546 753.650351,220.624888 C753.278063,220.851007 752.90513,221.077944 752.533943,221.306079 C752.542713,221.402539 752.521958,221.444421 752.521958,221.444421 L752.519108,221.446514 C753.705902,223.958861 754.551252,226.377158 754.551252,228.484887 C754.551252,233.895352 750.664261,237 747.191477,237 C745.34991,237 741.928001,235.145415 741.928001,230.406401 C741.928001,226.618235 744.617239,223.75801 747.944488,221.371331 L747.898155,221.254128 C747.208733,220.042064 746.444907,218.795671 745.678193,217.528435 L745.703608,217.509619 C743.091263,222.768022 740.168496,227.190204 738.633096,227.190204 C737.379647,227.190204 735.973215,226.65693 735.284431,226.191665 C735.226846,226.152794 735.149751,226.083609 735.057924,225.984396 L735.088337,225.987569 C733.473418,228.687767 731.740833,230.619423 730.392588,230.619423 C728.618027,230.619423 726.770289,229.925343 725.972245,229.299777 C725.961958,229.298403 725.951683,229.296727 725.94142,229.294757 C723.991814,232.805072 721.816954,235.214503 719.822698,235.214503 C717.223794,235.214503 714.319284,232.768352 713.501331,231.518648 C713.298865,231.209101 712.783824,230.432926 712.212907,229.074828 C712.074832,229.064234 711.890587,228.631403 711.700308,228.030672 C709.844562,229.883083 708.25715,230.909089 707.478352,230.909089 C706.332063,230.909089 703.794135,228.790386 703.106434,228.058843 C702.418371,227.327301 702.005606,225.932944 702.005606,221.017611 C702.005606,216.125307 703.073239,212.945094 703.59569,210.867052 C700.767672,216.14042 699.544531,224.858479 698.382727,224.858479 C697.694665,224.858479 695.308998,224.004953 694.942056,223.639002 C694.85319,223.550376 694.688882,223.223602 694.490932,222.623213 L694.466724,222.581285 C691.703434,229.416809 688.749869,234.54881 686.576707,234.54881 C683.278916,234.54881 679.090288,231.391626 677.500205,228.571967 C676.764155,227.266489 674,221.998518 674,214.426171 C674,196.390568 679.289455,189.901681 681.553168,189.901681 C685.862667,189.901681 688.802175,192.83037 689.704196,194.059923 C690.306747,194.881424 690.898834,196.708302 690.898834,199.663978 C690.898834,207.193146 686.52908,209.760562 684.855289,209.760562 C684.522623,209.760562 684.119961,209.577766 684.119961,209.205338 C684.119961,208.83291 686.557223,205.668889 686.557223,199.05442 C686.557223,196.219647 685.702828,193.858056 684.395258,193.858056 C682.316279,193.858056 678.830506,201.346203 678.830506,214.365359 C678.830506,223.09997 682.782082,231.452438 686.328471,231.452438 C687.774024,231.452438 690.727981,225.434224 693.520145,217.89736 L693.520882,218.004056 C693.184734,215.559963 692.925135,212.242113 692.925135,207.895182 C692.925135,195.686733 696.532861,186 698.21459,186 C700.022241,186 701.282185,186.807827 701.910353,187.93051 C702.210907,188.468462 702.341158,190.417323 702.341158,191.861337 C702.341158,196.786759 700.089087,206.421779 697.134493,215.293324 L697.137872,215.271834 Z M696.808222,207.936597 C696.819833,202.008227 698.409132,191.13951 699.60659,191.13951 C699.793489,191.13951 699.986882,191.228749 699.986882,191.983321 C699.986882,195.653381 698.668935,201.684513 696.826018,207.940417 L696.823822,207.926982 L696.808222,207.936597 Z M757.057201,215.696477 C759.049144,214.340382 760.417279,213.01511 760.417279,211.555774 C760.417279,211.038333 760.233628,210.138388 759.622418,210.138388 C759.107029,210.138388 757.538479,212.021803 757.057853,215.679015 L757.057201,215.696477 Z M749.210962,223.742126 C750.055642,225.518528 750.607253,227.191862 750.607253,228.713382 C750.607253,232.797858 748.920472,235.079566 747.283123,235.079566 C746.004056,235.079566 744.049195,233.464271 744.049195,230.463614 C744.049195,227.829227 746.221234,225.60693 749.080832,223.560886 L749.210962,223.742126 Z M746.818845,210.82049 C748.299389,207.24435 749.376535,203.923168 749.376535,202.127043 C749.376535,200.313479 748.277511,198.801456 747.33544,198.801456 C745.913854,198.801456 745.034924,200.447697 745.034924,204.958937 C745.034924,206.600267 745.774864,208.605629 746.842085,210.797712 L746.818845,210.82049 Z M735.975606,220.496779 C735.812849,219.442387 735.713433,218.158877 735.713433,216.597769 C735.713433,213.656126 736.905905,211.034735 737.410316,211.034735 C737.777258,211.034735 738.2243,211.430912 738.2243,212.375836 C738.2243,214.300492 737.222466,217.424291 735.914929,220.402285 L735.938854,220.364054 L735.975606,220.496779 Z M726.550741,222.292317 C728.293145,217.855656 729.687207,212.652842 729.687207,208.169376 C729.687207,206.949898 729.174498,206.526374 728.722043,206.526374 C727.870174,206.526374 725.959332,211.126492 725.959332,216.109834 C725.959332,218.671781 726.209108,220.75451 726.599195,222.426965 L726.550741,222.292317 Z M715.070885,219.576587 C715.024548,218.580143 714.999769,217.507771 714.999769,216.353802 C714.999769,208.489268 718.118238,201.844213 719.066082,201.844213 C719.662138,201.844213 719.891613,202.2188 719.891613,203.155088 C719.891613,209.31684 717.67018,215.104213 715.083415,219.590205 L715.081163,219.56524 L715.070885,219.576587 Z" id="Cheese-Logo"></path>
        </g>
    </g>
</svg>