<?xml version="1.0" encoding="UTF-8"?>
<svg width="26px" height="24px" viewBox="0 0 26 24" version="1.1" xmlns="http://www.w3.org/2000/svg" xmlns:xlink="http://www.w3.org/1999/xlink">
    <!-- Generator: sketchtool 41.2 (35397) - http://www.bohemiancoding.com/sketch -->
    <title>5DED4F66-7491-483B-B2FC-BBBF333B17EE</title>
    <desc>Created with sketchtool.</desc>
    <defs></defs>
    <g id="Welcome" stroke="none" stroke-width="1" fill="none" fill-rule="evenodd">
        <g id="35.-Photographer-profile" transform="translate(-1127.000000, -28.000000)">
            <g id="Group-11">
                <g id="Group-4">
                    <g id="Group-6" transform="translate(685.000000, 19.500000)">
                        <g id="Group-4-Copy-3">
                            <g id="Chats" transform="translate(443.000000, 9.000000)">
                                <g id="Chat-icon" transform="translate(0.000000, 0.727273)">
                                    <path d="M4.00878754,16.2373045 C1.69910429,14.5273672 0.25257296,12.0785763 0.25257296,9.35881675 C0.25257296,4.19008498 5.47695367,0 11.9215539,0 C18.3661541,0 23.5905348,4.19008498 23.5905348,9.35881675 C23.5905348,14.5275485 18.3661541,18.7176335 11.9215539,18.7176335 C11.3196129,18.7176335 10.7283171,18.6810792 10.1509293,18.6105874 C7.28229397,21.0579819 1.95546252,21.1781818 1.95546252,21.1781818 C1.95546252,21.1781818 3.23409268,18.1014382 4.00878754,16.2373045 Z" id="Combined-Shape-Copy" stroke="#FFFFFF" stroke-width="1.19999993" fill="#FFFFFF"></path>
                                    <path d="M12.1285793,10.8365247 C13.0060926,10.8365247 13.7174578,10.1230427 13.7174578,9.24291809 C13.7174578,8.36279349 13.0060926,7.64931153 12.1285793,7.64931153 C11.251066,7.64931153 10.5397009,8.36279349 10.5397009,9.24291809 C10.5397009,10.1230427 11.251066,10.8365247 12.1285793,10.8365247 Z M16.2741383,10.8365247 C17.1516517,10.8365247 17.8630168,10.1230427 17.8630168,9.24291809 C17.8630168,8.36279349 17.1516517,7.64931153 16.2741383,7.64931153 C15.396625,7.64931153 14.6852599,8.36279349 14.6852599,9.24291809 C14.6852599,10.1230427 15.396625,10.8365247 16.2741383,10.8365247 Z M7.98302031,10.8365247 C8.86053364,10.8365247 9.57189875,10.1230427 9.57189875,9.24291809 C9.57189875,8.36279349 8.86053364,7.64931153 7.98302031,7.64931153 C7.10550697,7.64931153 6.39414186,8.36279349 6.39414186,9.24291809 C6.39414186,10.1230427 7.10550697,10.8365247 7.98302031,10.8365247 Z" id="Combined-Shape" fill="#000000"></path>
                                </g>
                            </g>
                        </g>
                    </g>
                </g>
            </g>
        </g>
    </g>
</svg>